<?xml version="1.0" encoding="utf-8"?>
<!-- Generator: Adobe Illustrator 28.0.0, SVG Export Plug-In . SVG Version: 6.00 Build 0)  -->
<svg version="1.1" id="Layer_1" xmlns="http://www.w3.org/2000/svg" xmlns:xlink="http://www.w3.org/1999/xlink" x="0px" y="0px"
	 viewBox="0 0 368.7 413.3" style="enable-background:new 0 0 368.7 413.3;" xml:space="preserve">
<style type="text/css">
	.st0{fill:#5D8C7B;}
	.st1{fill:#8FBC8F;}
</style>
<path class="st0" d="M177.5,0c1.1,2.8,2.9,5.2,4.9,7.4c3.4,3.8,7.6,6.6,11.9,9.2c4.9,3.1,9.8,6.3,13.8,10.7c2.1,2.3,3.9,4.8,6,7.2
	c3.6,4,7.4,7.9,11.1,11.8c0.3,0.3,0.5,0.6,0.7,1.1c-1.7-0.8-3.4-1.5-5.2-2.2c-8.2-3.2-16.3-6.5-24.5-9.7c-5.8-2.3-10-6.4-12.9-11.8
	c-3.2-5.9-4.6-12.4-5.5-19c-0.2-1.5-0.3-3.1-0.5-4.6C177.3,0,177.4,0,177.5,0L177.5,0z"/>
<path class="st1" d="M119.1,281.8c0.9,0.2,1.8,0.5,2.7,0.8c10.8,3,21.8,4.6,33,5.1c21.2,1,41.7-2.3,61-11.3
	c24.2-11.2,42.2-28.9,54.6-52.4c7.3-13.9,11.8-28.7,13.4-44.2c3.6-35.4-5.6-67-28.6-94.3c-15.1-17.9-33.8-31-56-38.8
	c-13.5-4.7-27.4-6.8-41.7-6.1c-15.6,0.7-30.5,4.7-44.6,11.4c-17.5,8.3-32.5,19.8-44.8,34.8c-0.2,0.3-0.5,0.5-0.9,0.7
	c0.2-0.3,0.4-0.7,0.6-1c6.1-9.6,14-17.5,23-24.3c17.3-13.1,36.9-21,58.4-23.7c25.3-3.2,49.6,0.8,72.5,11.9
	c26.1,12.6,45.7,32,58.9,57.8c7,13.8,11.4,28.5,12.9,43.9c3.3,34-5.5,64.6-26.6,91.3c-19.3,24.4-44.7,39.5-75.2,45.5
	c-5.8,1.1-11.9,1.1-17.9,1.3c-8.3,0.3-16.6,0-24.8-1c-10-1.2-19.7-3.5-29.2-6.8c-0.3-0.1-0.6-0.2-0.8-0.4
	C119,282,119.1,281.9,119.1,281.8L119.1,281.8z"/>
<path class="st1" d="M217.6,62.3c-31.6-3.1-59.2,6.3-83.4,26.9c0.1-0.5,0-0.7,0.1-1c3.2-8.3,7.1-16.4,12.8-23.4
	c5.9-7.3,13.2-12.5,22.7-14.2c6.7-1.2,13.4-0.4,19.9,1.1c7.7,1.8,15.1,4.8,22.3,8C213.9,60.7,215.8,61.5,217.6,62.3L217.6,62.3z"/>
<path class="st1" d="M247.9,82.9c-26.4-6.1-50.8-2.9-72.9,13.7c0-0.2,0-0.3,0-0.4c3.1-8.8,7.5-16.8,14.4-23.2
	c8.2-7.7,17.8-9.7,28.6-6.9c8.5,2.2,16,6.4,23,11.5c2.1,1.5,4.1,3.2,6.1,4.8C247.4,82.6,247.7,82.7,247.9,82.9L247.9,82.9z"/>
<path class="st0" d="M154.5,50.3c-0.7,1.3-1.2,2.6-1.9,3.8c-2.8,4.5-6.6,8-11.1,10.7c-6.5,3.9-13.1,7.6-19.8,11.2
	c-8.6,4.7-17.2,9.5-24.8,15.9c-1.7,1.4-3.3,2.9-5.1,4.2c0.9-2,1.7-3.9,2.6-5.9c6.3-13,15-23.9,27.1-32c6.5-4.3,13.5-7.3,21.3-8.2
	c3.5-0.4,7-0.1,10.5-0.1C153.5,50,153.9,50.1,154.5,50.3L154.5,50.3z"/>
<path class="st1" d="M267.3,107.6c-21.1-10.5-42.6-13.7-65.3-5.1c1.2-1.6,2.4-3.3,3.8-4.9c3.4-4,7.3-7.6,11.9-10.3
	c4.2-2.5,8.8-4,13.8-3.9c4.8,0,9.2,1.6,13.3,3.9c7.5,4.2,13.7,9.9,19.2,16.4C265.1,104.9,266.2,106.2,267.3,107.6L267.3,107.6z"/>
<path class="st0" d="M301.6,72c-0.8,2.6-1.8,5.1-2.5,7.8c-1,4.2-0.5,8.5,0.1,12.8c0.7,5,1.6,9.9,1.1,15c-0.2,2-0.5,4-1,5.9
	c-2.4,7.8-3.8,15.8-5.2,23.9c0,0.1-0.1,0.3-0.1,0.8c-0.2-0.6-0.3-0.8-0.4-1.1c-2.3-8.8-4.6-17.6-7-26.4c-0.6-2.3-1.5-4.7-1.9-7.1
	c-0.8-5.2,0.5-10.2,2.9-14.8c3.4-6.4,8.2-11.7,13.6-16.6C301.4,72.1,301.5,72,301.6,72L301.6,72z"/>
<path class="st0" d="M281,100c-1.7-2.7-3.3-5.3-5.1-7.9c-3.9-5.8-7.8-11.6-11.9-17.3c-3.1-4.3-4.7-8.9-4.8-14.1
	c-0.1-6.4,1.8-12.3,4.4-18c1-2.2,2.4-4.2,3.6-6.4c0.1-0.2,0.3-0.4,0.4-0.6c0.1,0,0.2,0.1,0.2,0.2c-0.1,0.5-0.1,1.1-0.2,1.6
	c-0.8,5.6,0.5,10.9,2.9,15.9c1.9,4,3.9,7.9,5.6,11.9c1.5,3.5,2,7.3,2.2,11.1c0.4,5.6,1.1,11.3,1.7,16.9c0.2,2.2,0.6,4.4,1,6.6
	L281,100L281,100z"/>
<path class="st0" d="M227.1,12.8c0.3,1.2,0.4,2.1,0.6,3c1.3,5.7,4.5,10.4,8.1,14.9c2.6,3.2,5.2,6.4,7.7,9.6
	c2.3,3.1,3.8,6.6,5.3,10.2c2.6,6.2,5.5,12.2,8.3,18.3c0.2,0.5,0.5,1.1,1,1.9c-0.5-0.3-0.8-0.5-1-0.7c-7.8-6.4-15.5-12.8-23.4-19.1
	c-5.5-4.4-8.5-10.1-9.2-17c-0.7-7,0.4-13.8,2.2-20.5C226.8,13.5,226.9,13.3,227.1,12.8L227.1,12.8z"/>
<path class="st1" d="M135.1,3.8c0.7,0.8,1.3,1.5,1.9,2.1c3.4,3.7,7.8,5.8,12.4,7.3c3.6,1.2,7.3,2.3,10.9,3.6
	c3.4,1.2,6.4,3.1,9.1,5.4c4.9,4.2,10.4,7.6,15.8,11c0.3,0.2,0.6,0.4,1.2,0.8c-4.3-0.4-8.4-0.9-12.4-1.2c-4.9-0.4-9.8-0.9-14.7-0.9
	c-7.5,0-13.1-3.1-17.1-9.2c-3.7-5.6-5.8-11.9-7.2-18.4C135,4.2,135.1,4,135.1,3.8L135.1,3.8z"/>
<path class="st0" d="M167.2,388.8c0,2.9,0,5.7,0,8.6c-0.1-1-0.2-2-0.2-3.1C167,392.5,167.1,390.7,167.2,388.8z"/>
</svg>
