<?xml version="1.0" encoding="UTF-8"?>
<svg id="Layer_1" data-name="Layer 1" xmlns="http://www.w3.org/2000/svg" viewBox="0 0 368.67 413.3">
  <defs>
    <style>
      .cls-1 {
        fill: #7c7c7c;
      }

      .cls-1, .cls-2, .cls-3, .cls-4, .cls-5, .cls-6, .cls-7 {
        stroke-width: 0px;
      }

      .cls-2 {
        fill: #b6b6b6;
      }

      .cls-3 {
        fill: #cdcdcd;
      }

      .cls-4 {
        fill: #6e6e6e;
      }

      .cls-6 {
        fill: #d2d2d2;
      }

      .cls-7 {
        fill: #6f6f6f;
      }
    </style>
  </defs>
  <path class="cls-5" d="m0,332.93c.31-1.59.58-3.19.94-4.76,3.38-14.72,15.41-24.26,30.51-24.32,6.27-.02,12.15,1.27,17.36,4.83,1.85,1.27,3.42,2.95,5.29,4.58-2.57,1.97-4.87,3.73-7.24,5.55-2.13-2.68-4.78-4.59-7.95-5.79-8.43-3.21-18.36-.46-24.23,6.72-7.37,9.02-7.74,23.39-.75,32.59,3.94,5.19,9.29,7.9,15.77,8.42,4.84.4,9.44-.31,13.41-3.28,1.84-1.38,3.41-3.1,5.19-4.74,2.15,1.62,4.47,3.36,7.08,5.33-1.79,1.66-3.36,3.43-5.22,4.79-15.8,11.59-40.38,6.18-48.19-15.03-.79-2.15-1.15-4.47-1.71-6.71-.06-.26-.17-.5-.25-.75,0-2.48,0-4.96,0-7.44Z"/>
  <path class="cls-6" d="m177.48,0c1.09,2.85,2.93,5.2,4.93,7.44,3.39,3.8,7.61,6.56,11.88,9.23,4.95,3.1,9.83,6.31,13.76,10.7,2.08,2.32,3.91,4.85,6,7.15,3.63,3.98,7.37,7.86,11.06,11.78.27.28.54.57.68,1.06-1.73-.75-3.43-1.54-5.18-2.24-8.16-3.25-16.33-6.47-24.5-9.71-5.8-2.29-9.99-6.38-12.91-11.79-3.2-5.92-4.62-12.39-5.5-19-.21-1.54-.32-3.09-.47-4.64.08,0,.16,0,.24,0Z"/>
  <path class="cls-4" d="m119.12,281.79c.91.25,1.83.51,2.74.76,10.78,3.02,21.79,4.63,32.96,5.12,21.22.95,41.68-2.27,61.04-11.26,24.16-11.23,42.22-28.9,54.59-52.42,7.3-13.88,11.84-28.66,13.43-44.24,3.61-35.39-5.63-67.04-28.58-94.33-15.1-17.95-33.81-30.96-56.02-38.75-13.5-4.74-27.44-6.75-41.73-6.08-15.65.73-30.49,4.72-44.64,11.4-17.52,8.27-32.46,19.85-44.76,34.83-.22.27-.47.53-.89.69.2-.35.4-.7.61-1.04,6.06-9.64,14-17.5,23.02-24.34,17.34-13.15,36.86-20.97,58.41-23.67,25.33-3.18,49.56.8,72.53,11.92,26.1,12.64,45.7,32.02,58.86,57.85,7.04,13.81,11.41,28.47,12.89,43.91,3.27,33.96-5.52,64.56-26.65,91.29-19.31,24.43-44.66,39.46-75.17,45.51-5.83,1.15-11.92,1.12-17.9,1.31-8.27.26-16.55,0-24.78-.97-10-1.17-19.73-3.51-29.23-6.84-.29-.1-.57-.25-.85-.37.04-.08.07-.17.11-.25Z"/>
  <path class="cls-5" d="m242.56,352.39c.44-1,.76-1.72,1.06-2.45,6.02-14.47,12.05-28.94,18.04-43.43.37-.89.8-1.17,1.75-1.15,3.32.06,6.63.02,9.95.03.39,0,.78.03,1.24.05v61.72h-8.35v-50.28c-.07-.01-.14-.03-.21-.04-.17.38-.36.75-.52,1.13-6.59,16.05-13.19,32.1-19.76,48.16-.33.81-.7,1.18-1.63,1.12-1.47-.09-2.95-.02-4.46-.02-6.91-16.82-13.8-33.6-20.69-50.37-.08.01-.16.02-.24.03v50.27h-8.44v-61.78c.78,0,1.52,0,2.26,0,3.04,0,6.08.03,9.11-.02.85-.02,1.25.26,1.57,1.04,6.21,14.87,12.46,29.73,18.69,44.58.15.36.32.71.62,1.4Z"/>
  <path class="cls-6" d="m217.61,62.32c-31.64-3.12-59.21,6.26-83.41,26.91.06-.48.04-.74.13-.96,3.25-8.34,7.09-16.36,12.78-23.36,5.93-7.3,13.21-12.49,22.66-14.17,6.74-1.2,13.37-.43,19.95,1.13,7.73,1.83,15.06,4.82,22.32,7.98,1.86.81,3.72,1.64,5.57,2.46Z"/>
  <path class="cls-5" d="m83.15,368.23c-12.44,0-21.98-9.56-21.94-22.05.04-11.81,10.02-21.66,22.48-21.45,11.82.2,21.6,9.92,21.57,21.81-.04,12.17-9.74,21.69-22.11,21.69Zm13.67-22.17c-.11-.85-.17-2.14-.45-3.38-1.19-5.24-4.27-8.87-9.58-10.09-5.38-1.24-10.32-.2-14,4.24-2.84,3.42-3.53,7.53-3.02,11.86,1.46,12.52,14.02,14.38,20.71,10.25,4.62-2.86,6.16-7.3,6.34-12.87Z"/>
  <path class="cls-5" d="m155.06,346.45c-.11-11.96,9.97-21.94,22.47-21.72,11.85.2,21.55,9.86,21.54,21.84,0,12.22-9.72,21.68-22.25,21.66-12.17-.02-21.77-9.62-21.76-21.77Zm8.41-.08c.02,8.44,5.1,14.06,12.92,14.5,6.06.34,11.39-3.09,13.35-8.83.88-2.58,1.11-5.22.73-7.92-.69-4.92-2.93-8.83-7.65-10.8-4.85-2.02-9.65-1.71-14,1.41-3.93,2.83-5.2,7-5.36,11.63Z"/>
  <path class="cls-5" d="m322.1,367.19h-7.06v-6.18c-.38.22-.54.26-.61.36-3.72,5.51-9.16,7.13-15.43,6.82-3.87-.19-7.35-1.36-10.13-4.22-4.26-4.37-4.77-14.49,3.17-19.02,3.37-1.92,7.03-2.86,10.84-3.12,3.46-.24,6.94-.22,10.42-.31.31,0,.62-.04.92-.06,1.08-4.77-2.5-9.58-7.55-10.22-4.49-.56-8.56.46-12.14,3.27-.56.44-1.14.86-1.46,1.1-1.78-1.56-3.46-3.04-5.19-4.56,2.71-2.53,5.62-4.11,8.87-5.1,5.06-1.54,10.16-1.72,15.22-.16,6.52,2.01,9.85,6.66,9.87,13.49.02,8.11.02,16.23.05,24.34,0,1.15.14,2.3.22,3.56Zm-7.75-19.82c-2.39,0-4.67-.09-6.93.03-1.9.1-3.81.34-5.69.7-2.08.4-4.01,1.21-5.75,2.5-3.27,2.43-2.98,8.94,1.52,10.4,1.2.39,2.46.73,3.71.84,4.19.36,7.97-.56,10.7-4.03,2.39-3.04,2.67-6.63,2.44-10.44Z"/>
  <path class="cls-4" d="m247.95,82.9c-26.4-6.06-50.84-2.87-72.9,13.7,0-.15-.03-.29,0-.4,3.1-8.78,7.49-16.77,14.37-23.2,8.21-7.69,17.82-9.68,28.56-6.89,8.49,2.2,15.97,6.43,23.03,11.5,2.11,1.51,4.09,3.19,6.14,4.79.25.19.53.34.79.5Z"/>
  <path class="cls-4" d="m154.47,50.26c-.68,1.33-1.23,2.6-1.94,3.78-2.77,4.54-6.65,8.02-11.12,10.72-6.5,3.91-13.14,7.59-19.8,11.22-8.64,4.71-17.19,9.54-24.75,15.92-1.66,1.4-3.26,2.89-5.1,4.22.86-1.96,1.65-3.95,2.59-5.87,6.31-12.96,14.99-23.94,27.06-32.02,6.47-4.33,13.51-7.33,21.28-8.16,3.47-.37,7.01-.09,10.51-.09.34,0,.69.15,1.27.29Z"/>
  <path class="cls-5" d="m150.57,331.44c-1.96,1.79-3.93,3.58-5.93,5.41-.56-.51-1.06-.96-1.55-1.41-5.87-5.4-18.55-4.96-21.21,7.42-.97,4.52-.46,8.83,2.27,12.69,4.49,6.34,13.85,7.22,19.48,1.84.37-.36.69-.77.98-1.09,1.92,1.93,3.75,3.76,5.6,5.62-3.36,5.13-13.57,7.76-21.96,5.53-8.97-2.38-14.68-9.63-15.23-19.37-.57-10,4.34-18.25,12.93-21.69,8.43-3.39,19.33-1.19,24.64,5.04Z"/>
  <path class="cls-5" d="m362.66,356.23c2.03,2.03,3.86,3.85,5.71,5.69-3.58,5.24-14.02,7.83-22.29,5.47-8.77-2.5-14.5-9.82-14.89-19.01-.45-10.68,4.4-18.81,13.17-22.11,8.47-3.19,19.39-.89,24.31,5.19-1.95,1.79-3.91,3.58-5.9,5.39-.7-.62-1.3-1.2-1.95-1.72-5.29-4.23-13.15-3.84-17.43.84-4.64,5.09-5.12,14.15-1.05,19.7,4.59,6.26,13.9,7.04,19.52,1.62.34-.33.57-.76.79-1.06Z"/>
  <path class="cls-6" d="m267.26,107.56c-21.14-10.46-42.63-13.73-65.26-5.12,1.25-1.62,2.45-3.3,3.77-4.86,3.43-4.04,7.34-7.57,11.91-10.29,4.24-2.52,8.83-4,13.77-3.95,4.77.04,9.2,1.56,13.34,3.87,7.49,4.18,13.69,9.9,19.21,16.42,1.1,1.3,2.17,2.62,3.25,3.94Z"/>
  <path class="cls-4" d="m301.59,71.99c-.83,2.57-1.84,5.13-2.47,7.79-1,4.23-.53,8.5.09,12.75.72,4.98,1.62,9.95,1.07,15.02-.22,1.98-.46,3.99-1.04,5.88-2.4,7.81-3.83,15.83-5.18,23.86-.03.15-.06.31-.15.82-.2-.57-.31-.82-.38-1.09-2.32-8.8-4.63-17.61-6.95-26.41-.62-2.35-1.48-4.66-1.85-7.05-.81-5.24.47-10.19,2.91-14.8,3.4-6.44,8.25-11.74,13.63-16.57.11-.1.26-.17.3-.2Z"/>
  <path class="cls-6" d="m281.01,99.96c-1.69-2.65-3.32-5.34-5.09-7.94-3.92-5.78-7.81-11.58-11.88-17.26-3.06-4.27-4.7-8.87-4.81-14.14-.14-6.43,1.84-12.28,4.43-17.98,1-2.21,2.36-4.25,3.56-6.36.11-.2.26-.37.39-.56.08.05.17.11.25.16-.06.54-.12,1.07-.19,1.61-.76,5.62.54,10.86,2.94,15.9,1.89,3.96,3.93,7.86,5.65,11.9,1.5,3.51,1.99,7.26,2.25,11.09.39,5.64,1.11,11.27,1.74,16.89.25,2.21.65,4.4.99,6.61l-.24.09Z"/>
  <path class="cls-4" d="m227.14,12.82c.26,1.25.44,2.13.64,3.01,1.31,5.73,4.5,10.43,8.14,14.9,2.6,3.19,5.23,6.36,7.69,9.65,2.31,3.08,3.79,6.62,5.28,10.17,2.58,6.18,5.49,12.23,8.26,18.34.25.54.54,1.06.98,1.94-.52-.35-.77-.48-.98-.66-7.79-6.37-15.54-12.79-23.39-19.08-5.49-4.4-8.49-10.11-9.22-17-.74-6.97.43-13.77,2.25-20.48.04-.15.12-.29.34-.78Z"/>
  <path class="cls-4" d="m135.12,3.77c.67.77,1.26,1.46,1.87,2.12,3.4,3.71,7.75,5.81,12.45,7.31,3.65,1.17,7.31,2.29,10.92,3.58,3.37,1.21,6.37,3.1,9.1,5.44,4.9,4.2,10.37,7.59,15.84,10.97.33.2.64.42,1.19.79-4.34-.42-8.37-.88-12.42-1.19-4.89-.37-9.8-.87-14.7-.87-7.47,0-13.09-3.15-17.1-9.25-3.69-5.61-5.75-11.9-7.22-18.41-.02-.11.02-.23.06-.5Z"/>
  <path class="cls-4" d="m230.76,111.21c3.42-1.63,6.98-2.64,10.66-3.22,6.88-1.08,13.55-.53,19.77,2.9,5.7,3.15,9.51,8.07,12.49,13.7,3.54,6.7,5.63,13.89,6.91,21.33.03.15,0,.31,0,.67-12.3-18.02-28.17-30.76-49.83-35.38Z"/>
  <path class="cls-4" d="m60.4,385.57c1.22,0,2.26-.09,3.26.05.33.05.74.64.86,1.05,1.63,5.77,3.22,11.54,4.81,17.32.25.9.51,1.8.88,3.06.25-.8.4-1.24.54-1.69,1.82-6.17,3.65-12.33,5.43-18.51.28-.97.7-1.34,1.73-1.33,2.9.04,2.89,0,3.72,2.79,1.68,5.71,3.36,11.42,5.04,17.13.12.42.27.83.5,1.51.19-.59.32-.93.42-1.28,1.73-6.24,3.48-12.47,5.15-18.72.29-1.09.74-1.56,1.88-1.43.7.08,1.42.02,2.34.02-.14.62-.22,1.08-.34,1.51-2.37,8.13-4.75,16.26-7.08,24.4-.26.92-.7,1.18-1.59,1.15-3.38-.12-2.51.54-3.47-2.62-1.8-5.92-3.53-11.87-5.28-17.81-.1-.34-.23-.67-.46-1.37-.24.68-.4,1.05-.51,1.43-1.87,6.36-3.76,12.72-5.6,19.09-.26.9-.61,1.32-1.63,1.28-3.36-.14-2.53.52-3.47-2.63-2.28-7.66-4.5-15.33-6.74-23-.11-.38-.2-.76-.36-1.42Z"/>
  <path class="cls-6" d="m147.48,33.61c-.81.25-1.55.5-2.3.7-6.3,1.73-12.67,2.58-19.18,1.47-8.84-1.51-14.85-6.64-18.47-14.69-.87-1.94-1.41-4.03-2.11-6.05l.34-.27c.41.16.85.27,1.23.48,4.81,2.68,9.65,5.32,14.41,8.09,7.48,4.36,15.38,7.59,23.84,9.46.66.15,1.31.34,1.96.52.06.02.1.11.28.29Z"/>
  <path class="cls-4" d="m283.35,407.14c0-.47,0-.95,0-1.42,0-6.24.03-12.47-.02-18.71,0-1.17.35-1.59,1.5-1.47.7.07,1.41.01,2.26.01v1.47c0,8.03-.02,16.07.02,24.1,0,1.13-.3,1.4-1.45,1.52-2.44.27-3.86-.62-5.19-2.71-3.75-5.9-7.78-11.62-11.7-17.41-.36-.53-.72-1.04-1.31-1.89-.04.75-.08,1.16-.08,1.56,0,6.32-.03,12.63.02,18.95,0,1.17-.35,1.51-1.49,1.47-2.64-.1-2.29.28-2.29-2.32-.02-7.75.02-15.51-.03-23.26,0-1.13.33-1.39,1.46-1.54,2.56-.33,4.01.69,5.37,2.85,3.84,6.08,7.95,11.99,11.95,17.97.21.32.45.62.68.93.09-.03.19-.07.28-.1Z"/>
  <path class="cls-4" d="m137.15,384.94c8.19,0,14.15,5.97,14.15,14.17,0,8.19-5.99,14.17-14.17,14.17-8.14,0-14.06-6.01-14.05-14.26,0-8.14,5.95-14.08,14.08-14.08Zm-10.09,14.07c-.01,3.41,1.06,6.4,3.77,8.57,3.19,2.56,6.82,2.95,10.49,1.33,3.97-1.76,5.81-5.12,5.95-9.37.14-4.27-1.4-7.79-5.25-9.93-6.93-3.85-14.92,1.21-14.96,9.4Z"/>
  <path class="cls-4" d="m216.06,388.33c-1.01,1.08-1.82,1.95-2.7,2.9-1.68-1.46-3.51-2.37-5.68-2.72-7.11-1.13-12.82,4.54-11.85,12.03.85,6.61,6.4,10.29,13.31,9.04q3.6-.65,3.6-4.29c0-1.12-.03-2.24,0-3.36.02-.73-.28-1-.99-.98-1.28.02-2.56-.02-3.83,0-.77.02-1.18-.19-1.16-1.07.06-2.98-.27-2.38,2.39-2.43,2.08-.04,4.15.01,6.23-.02.72-.01,1.11.15,1.1.98-.03,3.87,0,7.75-.04,11.62,0,.39-.31.96-.64,1.12-4.97,2.44-13.86,3.71-19.55-1.4-4.05-3.64-5.65-10.34-3.6-15.9,2-5.44,6.92-8.88,12.68-8.94,2.74-.03,5.45.11,7.91,1.49.92.52,1.76,1.19,2.82,1.91Z"/>
  <path class="cls-1" d="m163.32,385.82c.2-.12.27-.2.33-.2,4.02.07,8.08-.16,12.06.3,3.7.43,5.71,3.25,5.82,6.97.1,3.39-2.1,6.26-5.52,7.21-.26.07-.52.17-.98.32,2.49,4.02,4.93,7.95,7.53,12.15-1.62,0-2.96.07-4.28-.04-.35-.03-.73-.55-.96-.94-1.88-3.2-3.76-6.41-5.56-9.65-.5-.89-1.07-1.22-2.08-1.19-2.97.11-2.56-.39-2.59,2.64-.02,2.68-.03,5.35,0,8.03.01.86-.25,1.21-1.17,1.19-3.17-.08-2.6.35-2.61-2.58-.03-7.59-.01-15.18-.01-22.77v-1.46Zm3.85,11.62c2.26-.05,4.55.09,6.79-.18,2.51-.3,3.58-1.73,3.58-4.11,0-2.41-1.06-3.8-3.58-4.1-2.24-.27-4.52-.16-6.78-.22-.08,1.85-.2,3.71-.22,5.56-.01,1.02.14,2.04.22,3.06Z"/>
  <path class="cls-4" d="m12.62,400.47c2.48,3.99,4.91,7.92,7.5,12.09-1.6,0-2.97.06-4.33-.04-.31-.02-.65-.53-.85-.89-1.84-3.14-3.69-6.27-5.44-9.46-.57-1.03-1.19-1.49-2.42-1.44-2.48.11-2.48.03-2.48,2.5,0,2.72-.04,5.44.02,8.15.02.96-.32,1.24-1.25,1.22-2.87-.08-2.43.3-2.43-2.4-.02-7.71.02-15.43-.04-23.14,0-1.23.35-1.58,1.55-1.54,3.23.11,6.48-.02,9.7.18,4.12.26,6.58,2.78,6.92,6.76.31,3.6-1.85,6.57-5.55,7.65-.26.08-.51.2-.9.35Zm-8.02-7.34c0,1.16-.05,2.32.03,3.47.02.29.45.8.69.8,2.15,0,4.32.05,6.45-.23,2.3-.3,3.38-1.81,3.36-4.09-.02-2.23-1.19-3.73-3.48-4-2.09-.25-4.22-.22-6.33-.23-.24,0-.67.51-.69.8-.08,1.15-.03,2.31-.03,3.47Z"/>
  <path class="cls-4" d="m253.28,412.58c-1.38,0-2.58.06-3.76-.04-.31-.02-.7-.47-.85-.81-.68-1.53-1.32-3.09-1.89-4.66-.29-.79-.72-1.11-1.58-1.1-3.56.04-7.11.03-10.67,0-.75,0-1.16.24-1.42.96-.59,1.61-1.21,3.22-1.93,4.77-.18.39-.75.8-1.19.85-1.05.12-2.13.04-3.4.04.23-.59.36-.99.53-1.38,3.59-8.15,7.22-16.28,10.73-24.47.58-1.36,1.49-1.13,2.5-1.21,1.01-.08,1.56.23,1.98,1.23,3.44,8.17,6.95,16.31,10.44,24.46.15.36.28.73.51,1.35Zm-8.38-9.98c-1.67-4.1-3.26-8.01-4.98-12.25-1.75,4.26-3.36,8.17-5.03,12.25h10.02Z"/>
  <path class="cls-4" d="m54.35,412.58c-1.38,0-2.58.06-3.76-.04-.31-.03-.7-.48-.85-.82-.69-1.57-1.34-3.16-1.94-4.77-.26-.7-.65-.98-1.41-.98-3.6.03-7.19.03-10.79,0-.75,0-1.16.25-1.42.97-.59,1.61-1.21,3.22-1.93,4.77-.18.39-.76.79-1.2.84-1.05.12-2.13.04-3.38.04.22-.58.36-.99.53-1.38,3.59-8.15,7.22-16.28,10.73-24.47.58-1.35,1.49-1.13,2.5-1.21,1-.08,1.57.23,1.99,1.23,3.46,8.2,6.98,16.38,10.48,24.57.14.32.24.66.46,1.24Zm-13.16-21.79c-.12,0-.24,0-.36,0-1.6,3.89-3.2,7.77-4.85,11.76h9.99c-1.64-4.05-3.21-7.9-4.78-11.76Z"/>
  <path class="cls-4" d="m349.73,409.5c1-.86,1.96-1.67,2.99-2.56,1.47,1.83,3.28,2.79,5.53,2.83,1.85.03,3.48-.51,4.68-1.98,1.5-1.82,1.17-4.19-.89-5.31-1.49-.81-3.2-1.21-4.75-1.93-1.58-.73-3.3-1.38-4.57-2.5-3.08-2.71-2.93-7.86.08-10.72,3.04-2.89,9.84-3.31,13.21-.8.5.38.94.85,1.53,1.39-1.03.96-1.97,1.84-2.97,2.77-1.86-2.13-4.11-2.7-6.68-2.13-1.82.4-3.1,1.67-3.36,3.32-.28,1.74.44,3.17,2.26,4.08,1.21.6,2.52.99,3.8,1.44.75.27,1.53.47,2.28.73,6.79,2.4,5.64,10.12,2.1,13-3.81,3.11-11.21,2.76-14.57-.82-.21-.23-.39-.49-.66-.84Z"/>
  <path class="cls-4" d="m340.06,389.21c-.96.73-1.93,1.47-2.95,2.24-1.36-1.49-2.91-2.5-4.82-2.87-5.62-1.09-10.85,2.81-11.6,8.73-.49,3.84.27,7.31,3.21,10.09,3.08,2.91,9.76,3.74,13.23-.63.12-.16.21-.35.38-.63,1.14.86,2.11,1.58,3.07,2.3-1.78,3.57-8.11,5.69-13.3,4.55-5.88-1.3-10.49-6.86-10.69-12.92-.24-7.09,3.5-12.76,9.59-14.54,5.39-1.58,11.75.07,13.88,3.7Z"/>
  <path class="cls-4" d="m125.06,39.43c-5.36,2.72-10.89,4.89-17,5.15-3.79.16-7.39-.58-10.64-2.62-3.47-2.17-5.85-5.22-7.31-9.31.47.17.75.23,1,.36,7.4,3.69,15.23,5.66,23.5,5.86,3.46.08,6.93.01,10.39.01.02.18.04.37.06.55Z"/>
  <path class="cls-7" d="m304.57,399.13c0,4.03-.03,8.07.02,12.1.01,1.01-.22,1.43-1.32,1.39-2.89-.11-2.45.34-2.46-2.5-.02-7.67,0-15.33,0-23,0-1.56,0-1.57,1.6-1.56,2.52,0,2.15-.14,2.16,2.2.02,3.79,0,7.59,0,11.38Z"/>
  <path class="cls-3" d="m167.18,388.82c2.26.06,4.55-.05,6.78.22,2.53.31,3.58,1.7,3.58,4.1,0,2.38-1.07,3.81-3.58,4.11-2.24.27-4.52.14-6.79.18,0-2.87,0-5.74,0-8.62Z"/>
  <path class="cls-2" d="m167.18,388.82c0,2.87,0,5.74,0,8.62-.08-1.02-.23-2.04-.22-3.06.02-1.85.14-3.71.22-5.56Z"/>
</svg>