<?xml version="1.0" encoding="utf-8"?>
<!-- Generator: Adobe Illustrator 28.0.0, SVG Export Plug-In . SVG Version: 6.00 Build 0)  -->
<svg version="1.1" id="Layer_1" xmlns="http://www.w3.org/2000/svg" xmlns:xlink="http://www.w3.org/1999/xlink" x="0px" y="0px"
	 viewBox="0 0 368.7 109.4" style="enable-background:new 0 0 368.7 109.4;" xml:space="preserve">
<style type="text/css">
	.st0{fill:#2C5F4D;}
	.st1{fill:#5D8C7B;}
	.st2{fill:#8FBC8F;}
	.st3{fill:#4C8F7D;}
</style>
<g>
	<path class="st0" d="M121.6,37.5c0.2-1.1,0.4-2.1,0.6-3.2c2.3-9.9,10.3-16.3,20.4-16.3c4.2,0,8.1,0.9,11.6,3.2
		c1.2,0.9,2.3,2,3.5,3.1c-1.7,1.3-3.3,2.5-4.9,3.7c-1.4-1.8-3.2-3.1-5.3-3.9c-5.7-2.2-12.3-0.3-16.2,4.5c-4.9,6-5.2,15.7-0.5,21.8
		c2.6,3.5,6.2,5.3,10.6,5.6c3.2,0.3,6.3-0.2,9-2.2c1.2-0.9,2.3-2.1,3.5-3.2c1.4,1.1,3,2.3,4.7,3.6c-1.2,1.1-2.3,2.3-3.5,3.2
		c-10.6,7.8-27.1,4.1-32.3-10.1c-0.5-1.4-0.8-3-1.1-4.5c0-0.2-0.1-0.3-0.2-0.5C121.6,40.9,121.6,39.2,121.6,37.5z"/>
	<path class="st1" d="M284.1,50.6c0.3-0.7,0.5-1.2,0.7-1.6c4-9.7,8.1-19.4,12.1-29.1c0.2-0.6,0.5-0.8,1.2-0.8c2.2,0,4.4,0,6.7,0
		c0.3,0,0.5,0,0.8,0v41.4H300V26.8c0,0-0.1,0-0.1,0c-0.1,0.3-0.2,0.5-0.3,0.8c-4.4,10.8-8.8,21.5-13.2,32.3
		c-0.2,0.5-0.5,0.8-1.1,0.8c-1-0.1-2,0-3,0c-4.6-11.3-9.2-22.5-13.9-33.8c-0.1,0-0.1,0-0.2,0v33.7h-5.7V19.1c0.5,0,1,0,1.5,0
		c2,0,4.1,0,6.1,0c0.6,0,0.8,0.2,1.1,0.7c4.2,10,8.4,19.9,12.5,29.9C283.8,49.9,283.9,50.1,284.1,50.6L284.1,50.6z"/>
	<path class="st2" d="M177.3,61.2c-8.3,0-14.7-6.4-14.7-14.8c0-7.9,6.7-14.5,15.1-14.4c7.9,0.1,14.5,6.6,14.5,14.6
		C192.1,54.8,185.6,61.2,177.3,61.2z M186.5,46.3c-0.1-0.6-0.1-1.4-0.3-2.3c-0.8-3.5-2.9-5.9-6.4-6.8c-3.6-0.8-6.9-0.1-9.4,2.8
		c-1.9,2.3-2.4,5-2,7.9c1,8.4,9.4,9.6,13.9,6.9C185.3,53.1,186.3,50.1,186.5,46.3L186.5,46.3z"/>
	<path class="st3" d="M225.5,46.6c-0.1-8,6.7-14.7,15.1-14.6c7.9,0.1,14.4,6.6,14.4,14.6c0,8.2-6.5,14.5-14.9,14.5
		C231.9,61.2,225.5,54.8,225.5,46.6L225.5,46.6z M231.1,46.6c0,5.7,3.4,9.4,8.7,9.7c4.1,0.2,7.6-2.1,8.9-5.9
		c0.6-1.7,0.7-3.5,0.5-5.3c-0.5-3.3-2-5.9-5.1-7.2c-3.3-1.4-6.5-1.1-9.4,0.9C232.1,40.6,231.2,43.4,231.1,46.6L231.1,46.6z"/>
	<path class="st1" d="M337.5,60.5h-4.7v-4.1c-0.3,0.1-0.4,0.2-0.4,0.2c-2.5,3.7-6.1,4.8-10.3,4.6c-2.6-0.1-4.9-0.9-6.8-2.8
		c-2.9-2.9-3.2-9.7,2.1-12.7c2.3-1.3,4.7-1.9,7.3-2.1c2.3-0.2,4.7-0.1,7-0.2c0.2,0,0.4,0,0.6,0c0.7-3.2-1.7-6.4-5.1-6.8
		c-3-0.4-5.7,0.3-8.1,2.2c-0.4,0.3-0.8,0.6-1,0.7c-1.2-1-2.3-2-3.5-3.1c1.8-1.7,3.8-2.8,5.9-3.4c3.4-1,6.8-1.2,10.2-0.1
		c4.4,1.3,6.6,4.5,6.6,9c0,5.4,0,10.9,0,16.3C337.3,58.9,337.4,59.6,337.5,60.5L337.5,60.5z M332.3,47.2c-1.6,0-3.1-0.1-4.6,0
		c-1.3,0.1-2.6,0.2-3.8,0.5c-1.4,0.3-2.7,0.8-3.9,1.7c-2.2,1.6-2,6,1,7c0.8,0.3,1.6,0.5,2.5,0.6c2.8,0.2,5.3-0.4,7.2-2.7
		C332.2,52.2,332.4,49.8,332.3,47.2z"/>
	<path class="st2" d="M222.5,36.5c-1.3,1.2-2.6,2.4-4,3.6c-0.4-0.3-0.7-0.6-1-0.9c-3.9-3.6-12.4-3.3-14.2,5c-0.7,3-0.3,5.9,1.5,8.5
		c3,4.2,9.3,4.8,13.1,1.2c0.2-0.2,0.5-0.5,0.7-0.7c1.3,1.3,2.5,2.5,3.8,3.8c-2.3,3.4-9.1,5.2-14.7,3.7c-6-1.6-9.8-6.5-10.2-13
		c-0.4-6.7,2.9-12.2,8.7-14.5C211.6,30.9,218.9,32.4,222.5,36.5L222.5,36.5z"/>
	<path class="st3" d="M364.6,53.2c1.4,1.4,2.6,2.6,3.8,3.8c-2.4,3.5-9.4,5.2-14.9,3.7c-5.9-1.7-9.7-6.6-10-12.7
		c-0.3-7.2,2.9-12.6,8.8-14.8c5.7-2.1,13-0.6,16.3,3.5c-1.3,1.2-2.6,2.4-4,3.6c-0.5-0.4-0.9-0.8-1.3-1.2c-3.5-2.8-8.8-2.6-11.7,0.6
		c-3.1,3.4-3.4,9.5-0.7,13.2c3.1,4.2,9.3,4.7,13.1,1.1C364.3,53.6,364.5,53.4,364.6,53.2L364.6,53.2z"/>
	<path class="st0" d="M162.1,72.8c0.8,0,1.5-0.1,2.2,0c0.2,0,0.5,0.4,0.6,0.7c1.1,3.9,2.2,7.7,3.2,11.6c0.2,0.6,0.3,1.2,0.6,2.1
		c0.2-0.5,0.3-0.8,0.4-1.1c1.2-4.1,2.4-8.3,3.6-12.4c0.2-0.7,0.5-0.9,1.2-0.9c1.9,0,1.9,0,2.5,1.9c1.1,3.8,2.3,7.7,3.4,11.5
		c0.1,0.3,0.2,0.6,0.3,1c0.1-0.4,0.2-0.6,0.3-0.9c1.2-4.2,2.3-8.4,3.5-12.5c0.2-0.7,0.5-1,1.3-1c0.5,0.1,1,0,1.6,0
		c-0.1,0.4-0.1,0.7-0.2,1c-1.6,5.4-3.2,10.9-4.7,16.4c-0.2,0.6-0.5,0.8-1.1,0.8c-2.3-0.1-1.7,0.4-2.3-1.8c-1.2-4-2.4-8-3.5-11.9
		c-0.1-0.2-0.2-0.4-0.3-0.9c-0.2,0.5-0.3,0.7-0.3,1c-1.3,4.3-2.5,8.5-3.8,12.8c-0.2,0.6-0.4,0.9-1.1,0.9c-2.3-0.1-1.7,0.3-2.3-1.8
		c-1.5-5.1-3-10.3-4.5-15.4C162.2,73.5,162.2,73.2,162.1,72.8L162.1,72.8z"/>
	<path class="st0" d="M311.5,87.3c0-0.3,0-0.6,0-1c0-4.2,0-8.4,0-12.5c0-0.8,0.2-1.1,1-1c0.5,0,0.9,0,1.5,0v1c0,5.4,0,10.8,0,16.2
		c0,0.8-0.2,0.9-1,1c-1.6,0.2-2.6-0.4-3.5-1.8c-2.5-4-5.2-7.8-7.8-11.7c-0.2-0.4-0.5-0.7-0.9-1.3c0,0.5-0.1,0.8-0.1,1
		c0,4.2,0,8.5,0,12.7c0,0.8-0.2,1-1,1c-1.8-0.1-1.5,0.2-1.5-1.6c0-5.2,0-10.4,0-15.6c0-0.8,0.2-0.9,1-1c1.7-0.2,2.7,0.5,3.6,1.9
		c2.6,4.1,5.3,8,8,12c0.1,0.2,0.3,0.4,0.5,0.6C311.3,87.3,311.4,87.3,311.5,87.3L311.5,87.3z"/>
	<path class="st0" d="M213.5,72.4c5.5,0,9.5,4,9.5,9.5c0,5.5-4,9.5-9.5,9.5c-5.5,0-9.4-4-9.4-9.6C204.1,76.4,208.1,72.4,213.5,72.4
		L213.5,72.4z M206.7,81.8c0,2.3,0.7,4.3,2.5,5.7c2.1,1.7,4.6,2,7,0.9c2.7-1.2,3.9-3.4,4-6.3c0.1-2.9-0.9-5.2-3.5-6.7
		C212.1,72.9,206.8,76.3,206.7,81.8z"/>
	<path class="st0" d="M266.4,74.7c-0.7,0.7-1.2,1.3-1.8,1.9c-1.1-1-2.4-1.6-3.8-1.8c-4.8-0.8-8.6,3-7.9,8.1c0.6,4.4,4.3,6.9,8.9,6.1
		c1.6-0.3,2.4-1.2,2.4-2.9c0-0.8,0-1.5,0-2.3c0-0.5-0.2-0.7-0.7-0.7c-0.9,0-1.7,0-2.6,0c-0.5,0-0.8-0.1-0.8-0.7c0-2-0.2-1.6,1.6-1.6
		c1.4,0,2.8,0,4.2,0c0.5,0,0.7,0.1,0.7,0.7c0,2.6,0,5.2,0,7.8c0,0.3-0.2,0.6-0.4,0.8c-3.3,1.6-9.3,2.5-13.1-0.9
		c-2.7-2.4-3.8-6.9-2.4-10.7c1.3-3.6,4.6-6,8.5-6c1.8,0,3.7,0.1,5.3,1C265.1,73.7,265.7,74.2,266.4,74.7L266.4,74.7z"/>
	<path class="st0" d="M231,73c0.1-0.1,0.2-0.1,0.2-0.1c2.7,0,5.4-0.1,8.1,0.2c2.5,0.3,3.8,2.2,3.9,4.7c0.1,2.3-1.4,4.2-3.7,4.8
		c-0.2,0-0.3,0.1-0.7,0.2c1.7,2.7,3.3,5.3,5,8.1c-1.1,0-2,0-2.9,0c-0.2,0-0.5-0.4-0.6-0.6c-1.3-2.1-2.5-4.3-3.7-6.5
		c-0.3-0.6-0.7-0.8-1.4-0.8c-2,0.1-1.7-0.3-1.7,1.8c0,1.8,0,3.6,0,5.4c0,0.6-0.2,0.8-0.8,0.8c-2.1-0.1-1.7,0.2-1.7-1.7
		c0-5.1,0-10.2,0-15.3L231,73L231,73z M233.6,80.8c1.5,0,3,0.1,4.6-0.1c1.7-0.2,2.4-1.2,2.4-2.8c0-1.6-0.7-2.5-2.4-2.7
		c-1.5-0.2-3-0.1-4.5-0.1c-0.1,1.2-0.1,2.5-0.1,3.7C233.5,79.4,233.6,80.1,233.6,80.8L233.6,80.8z"/>
	<path class="st0" d="M130,82.8c1.7,2.7,3.3,5.3,5,8.1c-1.1,0-2,0-2.9,0c-0.2,0-0.4-0.4-0.6-0.6c-1.2-2.1-2.5-4.2-3.6-6.3
		c-0.4-0.7-0.8-1-1.6-1c-1.7,0.1-1.7,0-1.7,1.7c0,1.8,0,3.6,0,5.5c0,0.6-0.2,0.8-0.8,0.8c-1.9-0.1-1.6,0.2-1.6-1.6
		c0-5.2,0-10.3,0-15.5c0-0.8,0.2-1.1,1-1c2.2,0.1,4.3,0,6.5,0.1c2.8,0.2,4.4,1.9,4.6,4.5c0.2,2.4-1.2,4.4-3.7,5.1
		C130.5,82.6,130.3,82.7,130,82.8L130,82.8z M124.7,77.9c0,0.8,0,1.6,0,2.3c0,0.2,0.3,0.5,0.5,0.5c1.4,0,2.9,0,4.3-0.2
		c1.5-0.2,2.3-1.2,2.3-2.7c0-1.5-0.8-2.5-2.3-2.7c-1.4-0.2-2.8-0.1-4.2-0.2c-0.2,0-0.4,0.3-0.5,0.5
		C124.6,76.3,124.7,77.1,124.7,77.9L124.7,77.9z"/>
	<path class="st0" d="M291.3,90.9c-0.9,0-1.7,0-2.5,0c-0.2,0-0.5-0.3-0.6-0.5c-0.5-1-0.9-2.1-1.3-3.1c-0.2-0.5-0.5-0.7-1.1-0.7
		c-2.4,0-4.8,0-7.2,0c-0.5,0-0.8,0.2-1,0.6c-0.4,1.1-0.8,2.2-1.3,3.2c-0.1,0.3-0.5,0.5-0.8,0.6c-0.7,0.1-1.4,0-2.3,0
		c0.2-0.4,0.2-0.7,0.4-0.9c2.4-5.5,4.8-10.9,7.2-16.4c0.4-0.9,1-0.8,1.7-0.8c0.7-0.1,1,0.2,1.3,0.8c2.3,5.5,4.7,10.9,7,16.4
		C291.1,90.3,291.2,90.5,291.3,90.9L291.3,90.9z M285.7,84.2c-1.1-2.7-2.2-5.4-3.3-8.2c-1.2,2.9-2.3,5.5-3.4,8.2H285.7L285.7,84.2z"
		/>
	<path class="st0" d="M158,90.9c-0.9,0-1.7,0-2.5,0c-0.2,0-0.5-0.3-0.6-0.5c-0.5-1.1-0.9-2.1-1.3-3.2c-0.2-0.5-0.4-0.7-0.9-0.7
		c-2.4,0-4.8,0-7.2,0c-0.5,0-0.8,0.2-1,0.7c-0.4,1.1-0.8,2.2-1.3,3.2c-0.1,0.3-0.5,0.5-0.8,0.6c-0.7,0.1-1.4,0-2.3,0
		c0.1-0.4,0.2-0.7,0.4-0.9c2.4-5.5,4.8-10.9,7.2-16.4c0.4-0.9,1-0.8,1.7-0.8c0.7-0.1,1.1,0.2,1.3,0.8c2.3,5.5,4.7,11,7,16.5
		C157.8,90.3,157.9,90.5,158,90.9L158,90.9z M149.2,76.3c-0.1,0-0.2,0-0.2,0c-1.1,2.6-2.1,5.2-3.3,7.9h6.7
		C151.3,81.5,150.2,78.9,149.2,76.3z"/>
	<path class="st0" d="M356,88.9c0.7-0.6,1.3-1.1,2-1.7c1,1.2,2.2,1.9,3.7,1.9c1.2,0,2.3-0.3,3.1-1.3c1-1.2,0.8-2.8-0.6-3.6
		c-1-0.5-2.1-0.8-3.2-1.3c-1.1-0.5-2.2-0.9-3.1-1.7c-2.1-1.8-2-5.3,0.1-7.2c2-1.9,6.6-2.2,8.9-0.5c0.3,0.3,0.6,0.6,1,0.9
		c-0.7,0.6-1.3,1.2-2,1.9c-1.2-1.4-2.8-1.8-4.5-1.4c-1.2,0.3-2.1,1.1-2.3,2.2c-0.2,1.2,0.3,2.1,1.5,2.7c0.8,0.4,1.7,0.7,2.5,1
		c0.5,0.2,1,0.3,1.5,0.5c4.6,1.6,3.8,6.8,1.4,8.7c-2.6,2.1-7.5,1.8-9.8-0.5C356.3,89.2,356.2,89.1,356,88.9L356,88.9z"/>
	<path class="st0" d="M349.5,75.3c-0.6,0.5-1.3,1-2,1.5c-0.9-1-2-1.7-3.2-1.9c-3.8-0.7-7.3,1.9-7.8,5.9c-0.3,2.6,0.2,4.9,2.2,6.8
		c2.1,2,6.5,2.5,8.9-0.4c0.1-0.1,0.1-0.2,0.3-0.4c0.8,0.6,1.4,1.1,2.1,1.5c-1.2,2.4-5.4,3.8-8.9,3c-3.9-0.9-7-4.6-7.2-8.7
		c-0.2-4.8,2.3-8.6,6.4-9.7C343.8,71.7,348.1,72.8,349.5,75.3L349.5,75.3z"/>
	<path class="st0" d="M325.7,81.9c0,2.7,0,5.4,0,8.1c0,0.7-0.1,1-0.9,0.9c-1.9-0.1-1.6,0.2-1.6-1.7c0-5.1,0-10.3,0-15.4
		c0-1,0-1.1,1.1-1c1.7,0,1.4-0.1,1.4,1.5C325.7,76.8,325.7,79.4,325.7,81.9L325.7,81.9z"/>
	<path class="st0" d="M233.6,75c0,1.9,0,3.8,0,5.8c-0.1-0.7-0.2-1.4-0.1-2.1C233.5,77.5,233.6,76.2,233.6,75z"/>
</g>
<g>
	<path class="st0" d="M51.1-1c0.4,1,1.1,1.9,1.8,2.7c1.2,1.4,2.8,2.4,4.3,3.4c1.8,1.1,3.6,2.3,5,3.9c0.8,0.8,1.4,1.8,2.2,2.6
		c1.3,1.5,2.7,2.9,4,4.3c0.1,0.1,0.2,0.2,0.2,0.4c-0.6-0.3-1.3-0.6-1.9-0.8c-3-1.2-6-2.4-9-3.6c-2.1-0.8-3.7-2.3-4.7-4.3
		c-1.2-2.2-1.7-4.5-2-7C51.1,0.1,51.1-0.5,51.1-1C51-1.1,51.1-1.1,51.1-1L51.1-1z"/>
	<path class="st0" d="M29.8,102.1c0.3,0.1,0.7,0.2,1,0.3c3.9,1.1,8,1.7,12.1,1.9c7.8,0.3,15.3-0.8,22.3-4.1
		c8.8-4.1,15.5-10.6,20-19.2c2.7-5.1,4.3-10.5,4.9-16.2c1.3-13-2.1-24.5-10.5-34.5C74.1,23.6,67.2,18.9,59.1,16
		c-4.9-1.7-10-2.5-15.3-2.2c-5.7,0.3-11.2,1.7-16.3,4.2c-6.4,3-11.9,7.3-16.4,12.7c-0.1,0.1-0.2,0.2-0.3,0.3
		c0.1-0.1,0.1-0.3,0.2-0.4c2.2-3.5,5.1-6.4,8.4-8.9c6.3-4.8,13.5-7.7,21.4-8.7c9.3-1.2,18.1,0.3,26.5,4.4
		c9.6,4.6,16.7,11.7,21.5,21.2c2.6,5.1,4.2,10.4,4.7,16.1c1.2,12.4-2,23.6-9.8,33.4c-7.1,8.9-16.3,14.4-27.5,16.7
		c-2.1,0.4-4.4,0.4-6.6,0.5c-3,0.1-6.1,0-9.1-0.4c-3.7-0.4-7.2-1.3-10.7-2.5C29.9,102.3,29.8,102.2,29.8,102.1
		C29.7,102.1,29.7,102.1,29.8,102.1L29.8,102.1z"/>
	<path class="st0" d="M65.8,21.8c-11.6-1.1-21.7,2.3-30.5,9.8c0-0.2,0-0.3,0-0.4c1.2-3.1,2.6-6,4.7-8.5c2.2-2.7,4.8-4.6,8.3-5.2
		c2.5-0.4,4.9-0.2,7.3,0.4c2.8,0.7,5.5,1.8,8.2,2.9C64.4,21.2,65.1,21.5,65.8,21.8L65.8,21.8z"/>
	<path class="st0" d="M76.9,29.3c-9.7-2.2-18.6-1.1-26.7,5c0-0.1,0-0.1,0-0.1c1.1-3.2,2.7-6.1,5.3-8.5c3-2.8,6.5-3.5,10.5-2.5
		c3.1,0.8,5.8,2.4,8.4,4.2c0.8,0.6,1.5,1.2,2.2,1.8C76.7,29.2,76.8,29.2,76.9,29.3L76.9,29.3z"/>
	<path class="st0" d="M42.7,17.3c-0.2,0.5-0.5,1-0.7,1.4c-1,1.7-2.4,2.9-4.1,3.9c-2.4,1.4-4.8,2.8-7.2,4.1c-3.2,1.7-6.3,3.5-9.1,5.8
		c-0.6,0.5-1.2,1.1-1.9,1.5c0.3-0.7,0.6-1.4,0.9-2.1c2.3-4.7,5.5-8.8,9.9-11.7c2.4-1.6,4.9-2.7,7.8-3c1.3-0.1,2.6,0,3.8,0
		C42.3,17.2,42.5,17.3,42.7,17.3L42.7,17.3z"/>
	<path class="st0" d="M84,38.3c-7.7-3.8-15.6-5-23.9-1.9c0.5-0.6,0.9-1.2,1.4-1.8c1.3-1.5,2.7-2.8,4.4-3.8c1.6-0.9,3.2-1.5,5-1.4
		c1.7,0,3.4,0.6,4.9,1.4c2.7,1.5,5,3.6,7,6C83.2,37.4,83.6,37.8,84,38.3L84,38.3z"/>
	<path class="st0" d="M96.5,25.3c-0.3,0.9-0.7,1.9-0.9,2.9c-0.4,1.5-0.2,3.1,0,4.7c0.3,1.8,0.6,3.6,0.4,5.5
		c-0.1,0.7-0.2,1.5-0.4,2.2c-0.9,2.9-1.4,5.8-1.9,8.7c0,0.1,0,0.1-0.1,0.3c-0.1-0.2-0.1-0.3-0.1-0.4c-0.8-3.2-1.7-6.4-2.5-9.7
		c-0.2-0.9-0.5-1.7-0.7-2.6c-0.3-1.9,0.2-3.7,1.1-5.4c1.2-2.4,3-4.3,5-6.1C96.4,25.3,96.5,25.3,96.5,25.3L96.5,25.3z"/>
	<path class="st0" d="M89,35.5c-0.6-1-1.2-2-1.9-2.9c-1.4-2.1-2.9-4.2-4.3-6.3c-1.1-1.6-1.7-3.2-1.8-5.2c-0.1-2.4,0.7-4.5,1.6-6.6
		c0.4-0.8,0.9-1.6,1.3-2.3c0-0.1,0.1-0.1,0.1-0.2c0,0,0.1,0,0.1,0.1c0,0.2,0,0.4-0.1,0.6c-0.3,2.1,0.2,4,1.1,5.8
		c0.7,1.4,1.4,2.9,2.1,4.4c0.5,1.3,0.7,2.7,0.8,4.1c0.1,2.1,0.4,4.1,0.6,6.2C88.8,33.9,89,34.7,89,35.5L89,35.5L89,35.5z"/>
	<path class="st0" d="M69.3,3.6c0.1,0.5,0.2,0.8,0.2,1.1c0.5,2.1,1.6,3.8,3,5.5c1,1.2,1.9,2.3,2.8,3.5c0.8,1.1,1.4,2.4,1.9,3.7
		c0.9,2.3,2,4.5,3,6.7c0.1,0.2,0.2,0.4,0.4,0.7c-0.2-0.1-0.3-0.2-0.4-0.2c-2.9-2.3-5.7-4.7-8.6-7c-2-1.6-3.1-3.7-3.4-6.2
		c-0.3-2.6,0.2-5,0.8-7.5C69.2,3.9,69.2,3.8,69.3,3.6L69.3,3.6z"/>
	<path class="st0" d="M35.6,0.3c0.2,0.3,0.5,0.5,0.7,0.8c1.2,1.4,2.8,2.1,4.6,2.7c1.3,0.4,2.7,0.8,4,1.3c1.2,0.4,2.3,1.1,3.3,2
		c1.8,1.5,3.8,2.8,5.8,4c0.1,0.1,0.2,0.2,0.4,0.3c-1.6-0.2-3.1-0.3-4.5-0.4c-1.8-0.1-3.6-0.3-5.4-0.3c-2.7,0-4.8-1.2-6.3-3.4
		c-1.4-2.1-2.1-4.4-2.6-6.7C35.6,0.5,35.6,0.4,35.6,0.3L35.6,0.3z"/>
	<path class="st0" d="M70.6,39.7c1.3-0.6,2.6-1,3.9-1.2c2.5-0.4,5-0.2,7.2,1.1c2.1,1.2,3.5,3,4.6,5c1.3,2.5,2.1,5.1,2.5,7.8
		c0,0.1,0,0.1,0,0.2C84.3,46,78.5,41.3,70.6,39.7L70.6,39.7z"/>
	<path class="st0" d="M40.1,11.3c-0.3,0.1-0.6,0.2-0.8,0.3c-2.3,0.6-4.6,0.9-7,0.5c-3.2-0.6-5.4-2.4-6.8-5.4C25.2,6,25,5.2,24.7,4.5
		l0.1-0.1c0.2,0.1,0.3,0.1,0.5,0.2c1.8,1,3.5,1.9,5.3,3c2.7,1.6,5.6,2.8,8.7,3.5c0.2,0.1,0.5,0.1,0.7,0.2
		C40,11.2,40.1,11.2,40.1,11.3z"/>
	<path class="st0" d="M31.9,13.4c-2,1-4,1.8-6.2,1.9c-1.4,0.1-2.7-0.2-3.9-1c-1.3-0.8-2.1-1.9-2.7-3.4c0.2,0.1,0.3,0.1,0.4,0.1
		c2.7,1.4,5.6,2.1,8.6,2.1c1.3,0,2.5,0,3.8,0C31.9,13.3,31.9,13.3,31.9,13.4z"/>
</g>
</svg>
