<?xml version="1.0" encoding="utf-8"?>
<!-- Generator: Adobe Illustrator 28.0.0, SVG Export Plug-In . SVG Version: 6.00 Build 0)  -->
<svg version="1.1" id="Layer_1" xmlns="http://www.w3.org/2000/svg" xmlns:xlink="http://www.w3.org/1999/xlink" x="0px" y="0px"
	 viewBox="0 0 368.7 413.3" style="enable-background:new 0 0 368.7 413.3;" xml:space="preserve">
<style type="text/css">
	.st0{fill:#2D2D2D;}
</style>
<path class="st0" d="M0,332.9c0.3-1.6,0.6-3.2,0.9-4.8c3.4-14.7,15.4-24.3,30.5-24.3c6.3,0,12.1,1.3,17.4,4.8c1.8,1.3,3.4,3,5.3,4.6
	c-2.6,2-4.9,3.7-7.2,5.5c-2.1-2.7-4.8-4.6-8-5.8c-8.4-3.2-18.4-0.5-24.2,6.7c-7.4,9-7.7,23.4-0.8,32.6c3.9,5.2,9.3,7.9,15.8,8.4
	c4.8,0.4,9.4-0.3,13.4-3.3c1.8-1.4,3.4-3.1,5.2-4.7c2.2,1.6,4.5,3.4,7.1,5.3c-1.8,1.7-3.4,3.4-5.2,4.8C34.4,374.4,9.8,369,2,347.8
	c-0.8-2.1-1.1-4.5-1.7-6.7c-0.1-0.3-0.2-0.5-0.2-0.8C0,337.9,0,335.4,0,332.9L0,332.9z"/>
<path class="st0" d="M177.5,0c1.1,2.8,2.9,5.2,4.9,7.4c3.4,3.8,7.6,6.6,11.9,9.2c4.9,3.1,9.8,6.3,13.8,10.7c2.1,2.3,3.9,4.8,6,7.2
	c3.6,4,7.4,7.9,11.1,11.8c0.3,0.3,0.5,0.6,0.7,1.1c-1.7-0.8-3.4-1.5-5.2-2.2c-8.2-3.2-16.3-6.5-24.5-9.7c-5.8-2.3-10-6.4-12.9-11.8
	c-3.2-5.9-4.6-12.4-5.5-19c-0.2-1.5-0.3-3.1-0.5-4.6C177.3,0,177.4,0,177.5,0L177.5,0z"/>
<path class="st0" d="M119.1,281.8c0.9,0.2,1.8,0.5,2.7,0.8c10.8,3,21.8,4.6,33,5.1c21.2,1,41.7-2.3,61-11.3
	c24.2-11.2,42.2-28.9,54.6-52.4c7.3-13.9,11.8-28.7,13.4-44.2c3.6-35.4-5.6-67-28.6-94.3c-15.1-17.9-33.8-31-56-38.8
	c-13.5-4.7-27.4-6.8-41.7-6.1c-15.6,0.7-30.5,4.7-44.6,11.4c-17.5,8.3-32.5,19.8-44.8,34.8c-0.2,0.3-0.5,0.5-0.9,0.7
	c0.2-0.3,0.4-0.7,0.6-1c6.1-9.6,14-17.5,23-24.3c17.3-13.1,36.9-21,58.4-23.7c25.3-3.2,49.6,0.8,72.5,11.9
	c26.1,12.6,45.7,32,58.9,57.8c7,13.8,11.4,28.5,12.9,43.9c3.3,34-5.5,64.6-26.6,91.3c-19.3,24.4-44.7,39.5-75.2,45.5
	c-5.8,1.1-11.9,1.1-17.9,1.3c-8.3,0.3-16.6,0-24.8-1c-10-1.2-19.7-3.5-29.2-6.8c-0.3-0.1-0.6-0.2-0.8-0.4
	C119,282,119.1,281.9,119.1,281.8L119.1,281.8z"/>
<path class="st0" d="M242.6,352.4c0.4-1,0.8-1.7,1.1-2.5c6-14.5,12.1-28.9,18-43.4c0.4-0.9,0.8-1.2,1.8-1.1c3.3,0.1,6.6,0,10,0
	c0.4,0,0.8,0,1.2,0v61.7h-8.4v-50.3c-0.1,0-0.1,0-0.2,0c-0.2,0.4-0.4,0.8-0.5,1.1c-6.6,16-13.2,32.1-19.8,48.2
	c-0.3,0.8-0.7,1.2-1.6,1.1c-1.5-0.1-2.9,0-4.5,0c-6.9-16.8-13.8-33.6-20.7-50.4c-0.1,0-0.2,0-0.2,0v50.3h-8.4v-61.8
	c0.8,0,1.5,0,2.3,0c3,0,6.1,0,9.1,0c0.9,0,1.2,0.3,1.6,1c6.2,14.9,12.5,29.7,18.7,44.6C242.1,351.3,242.3,351.7,242.6,352.4
	L242.6,352.4z"/>
<path class="st0" d="M217.6,62.3c-31.6-3.1-59.2,6.3-83.4,26.9c0.1-0.5,0-0.7,0.1-1c3.2-8.3,7.1-16.4,12.8-23.4
	c5.9-7.3,13.2-12.5,22.7-14.2c6.7-1.2,13.4-0.4,19.9,1.1c7.7,1.8,15.1,4.8,22.3,8C213.9,60.7,215.8,61.5,217.6,62.3L217.6,62.3z"/>
<path class="st0" d="M83.2,368.2c-12.4,0-22-9.6-21.9-22c0-11.8,10-21.7,22.5-21.5c11.8,0.2,21.6,9.9,21.6,21.8
	C105.2,358.7,95.5,368.2,83.2,368.2z M96.8,346.1c-0.1-0.9-0.2-2.1-0.4-3.4c-1.2-5.2-4.3-8.9-9.6-10.1c-5.4-1.2-10.3-0.2-14,4.2
	c-2.8,3.4-3.5,7.5-3,11.9c1.5,12.5,14,14.4,20.7,10.2C95.1,356.1,96.6,351.6,96.8,346.1L96.8,346.1z"/>
<path class="st0" d="M155.1,346.5c-0.1-12,10-21.9,22.5-21.7c11.9,0.2,21.6,9.9,21.5,21.8c0,12.2-9.7,21.7-22.2,21.7
	C164.7,368.2,155.1,358.6,155.1,346.5L155.1,346.5z M163.5,346.4c0,8.4,5.1,14.1,12.9,14.5c6.1,0.3,11.4-3.1,13.4-8.8
	c0.9-2.6,1.1-5.2,0.7-7.9c-0.7-4.9-2.9-8.8-7.6-10.8c-4.9-2-9.6-1.7-14,1.4C164.9,337.6,163.6,341.7,163.5,346.4L163.5,346.4z"/>
<path class="st0" d="M322.1,367.2H315V361c-0.4,0.2-0.5,0.3-0.6,0.4c-3.7,5.5-9.2,7.1-15.4,6.8c-3.9-0.2-7.4-1.4-10.1-4.2
	c-4.3-4.4-4.8-14.5,3.2-19c3.4-1.9,7-2.9,10.8-3.1c3.5-0.2,6.9-0.2,10.4-0.3c0.3,0,0.6,0,0.9-0.1c1.1-4.8-2.5-9.6-7.5-10.2
	c-4.5-0.6-8.6,0.5-12.1,3.3c-0.6,0.4-1.1,0.9-1.5,1.1c-1.8-1.6-3.5-3-5.2-4.6c2.7-2.5,5.6-4.1,8.9-5.1c5.1-1.5,10.2-1.7,15.2-0.2
	c6.5,2,9.9,6.7,9.9,13.5c0,8.1,0,16.2,0,24.3C321.9,364.8,322,365.9,322.1,367.2L322.1,367.2z M314.4,347.4c-2.4,0-4.7-0.1-6.9,0
	c-1.9,0.1-3.8,0.3-5.7,0.7c-2.1,0.4-4,1.2-5.8,2.5c-3.3,2.4-3,8.9,1.5,10.4c1.2,0.4,2.5,0.7,3.7,0.8c4.2,0.4,8-0.6,10.7-4
	C314.3,354.8,314.6,351.2,314.4,347.4z"/>
<path class="st0" d="M247.9,82.9c-26.4-6.1-50.8-2.9-72.9,13.7c0-0.2,0-0.3,0-0.4c3.1-8.8,7.5-16.8,14.4-23.2
	c8.2-7.7,17.8-9.7,28.6-6.9c8.5,2.2,16,6.4,23,11.5c2.1,1.5,4.1,3.2,6.1,4.8C247.4,82.6,247.7,82.7,247.9,82.9L247.9,82.9z"/>
<path class="st0" d="M154.5,50.3c-0.7,1.3-1.2,2.6-1.9,3.8c-2.8,4.5-6.6,8-11.1,10.7c-6.5,3.9-13.1,7.6-19.8,11.2
	c-8.6,4.7-17.2,9.5-24.8,15.9c-1.7,1.4-3.3,2.9-5.1,4.2c0.9-2,1.7-3.9,2.6-5.9c6.3-13,15-23.9,27.1-32c6.5-4.3,13.5-7.3,21.3-8.2
	c3.5-0.4,7-0.1,10.5-0.1C153.5,50,153.9,50.1,154.5,50.3L154.5,50.3z"/>
<path class="st0" d="M150.6,331.4c-2,1.8-3.9,3.6-5.9,5.4c-0.6-0.5-1.1-1-1.6-1.4c-5.9-5.4-18.6-5-21.2,7.4c-1,4.5-0.5,8.8,2.3,12.7
	c4.5,6.3,13.9,7.2,19.5,1.8c0.4-0.4,0.7-0.8,1-1.1c1.9,1.9,3.8,3.8,5.6,5.6c-3.4,5.1-13.6,7.8-22,5.5c-9-2.4-14.7-9.6-15.2-19.4
	c-0.6-10,4.3-18.2,12.9-21.7C134.4,323,145.3,325.2,150.6,331.4L150.6,331.4z"/>
<path class="st0" d="M362.7,356.2c2,2,3.9,3.9,5.7,5.7c-3.6,5.2-14,7.8-22.3,5.5c-8.8-2.5-14.5-9.8-14.9-19
	c-0.5-10.7,4.4-18.8,13.2-22.1c8.5-3.2,19.4-0.9,24.3,5.2c-2,1.8-3.9,3.6-5.9,5.4c-0.7-0.6-1.3-1.2-2-1.7
	c-5.3-4.2-13.1-3.8-17.4,0.8c-4.6,5.1-5.1,14.1-1,19.7c4.6,6.3,13.9,7,19.5,1.6C362.2,357,362.4,356.5,362.7,356.2L362.7,356.2z"/>
<path class="st0" d="M267.3,107.6c-21.1-10.5-42.6-13.7-65.3-5.1c1.2-1.6,2.4-3.3,3.8-4.9c3.4-4,7.3-7.6,11.9-10.3
	c4.2-2.5,8.8-4,13.8-3.9c4.8,0,9.2,1.6,13.3,3.9c7.5,4.2,13.7,9.9,19.2,16.4C265.1,104.9,266.2,106.2,267.3,107.6L267.3,107.6z"/>
<path class="st0" d="M301.6,72c-0.8,2.6-1.8,5.1-2.5,7.8c-1,4.2-0.5,8.5,0.1,12.8c0.7,5,1.6,9.9,1.1,15c-0.2,2-0.5,4-1,5.9
	c-2.4,7.8-3.8,15.8-5.2,23.9c0,0.1-0.1,0.3-0.1,0.8c-0.2-0.6-0.3-0.8-0.4-1.1c-2.3-8.8-4.6-17.6-7-26.4c-0.6-2.3-1.5-4.7-1.9-7.1
	c-0.8-5.2,0.5-10.2,2.9-14.8c3.4-6.4,8.2-11.7,13.6-16.6C301.4,72.1,301.5,72,301.6,72L301.6,72z"/>
<path class="st0" d="M281,100c-1.7-2.7-3.3-5.3-5.1-7.9c-3.9-5.8-7.8-11.6-11.9-17.3c-3.1-4.3-4.7-8.9-4.8-14.1
	c-0.1-6.4,1.8-12.3,4.4-18c1-2.2,2.4-4.2,3.6-6.4c0.1-0.2,0.3-0.4,0.4-0.6c0.1,0,0.2,0.1,0.2,0.2c-0.1,0.5-0.1,1.1-0.2,1.6
	c-0.8,5.6,0.5,10.9,2.9,15.9c1.9,4,3.9,7.9,5.6,11.9c1.5,3.5,2,7.3,2.2,11.1c0.4,5.6,1.1,11.3,1.7,16.9c0.2,2.2,0.6,4.4,1,6.6
	L281,100L281,100z"/>
<path class="st0" d="M227.1,12.8c0.3,1.2,0.4,2.1,0.6,3c1.3,5.7,4.5,10.4,8.1,14.9c2.6,3.2,5.2,6.4,7.7,9.6
	c2.3,3.1,3.8,6.6,5.3,10.2c2.6,6.2,5.5,12.2,8.3,18.3c0.2,0.5,0.5,1.1,1,1.9c-0.5-0.3-0.8-0.5-1-0.7c-7.8-6.4-15.5-12.8-23.4-19.1
	c-5.5-4.4-8.5-10.1-9.2-17c-0.7-7,0.4-13.8,2.2-20.5C226.8,13.5,226.9,13.3,227.1,12.8L227.1,12.8z"/>
<path class="st0" d="M135.1,3.8c0.7,0.8,1.3,1.5,1.9,2.1c3.4,3.7,7.8,5.8,12.4,7.3c3.6,1.2,7.3,2.3,10.9,3.6
	c3.4,1.2,6.4,3.1,9.1,5.4c4.9,4.2,10.4,7.6,15.8,11c0.3,0.2,0.6,0.4,1.2,0.8c-4.3-0.4-8.4-0.9-12.4-1.2c-4.9-0.4-9.8-0.9-14.7-0.9
	c-7.5,0-13.1-3.1-17.1-9.2c-3.7-5.6-5.8-11.9-7.2-18.4C135,4.2,135.1,4,135.1,3.8L135.1,3.8z"/>
<path class="st0" d="M230.8,111.2c3.4-1.6,7-2.6,10.7-3.2c6.9-1.1,13.6-0.5,19.8,2.9c5.7,3.2,9.5,8.1,12.5,13.7
	c3.5,6.7,5.6,13.9,6.9,21.3c0,0.1,0,0.3,0,0.7C268.3,128.6,252.4,115.8,230.8,111.2z"/>
<path class="st0" d="M147.5,33.6c-0.8,0.2-1.6,0.5-2.3,0.7c-6.3,1.7-12.7,2.6-19.2,1.5c-8.8-1.5-14.8-6.6-18.5-14.7
	c-0.9-1.9-1.4-4-2.1-6.1l0.3-0.3c0.4,0.2,0.8,0.3,1.2,0.5c4.8,2.7,9.7,5.3,14.4,8.1c7.5,4.4,15.4,7.6,23.8,9.5
	c0.7,0.2,1.3,0.3,2,0.5C147.3,33.3,147.3,33.4,147.5,33.6z"/>
<path class="st0" d="M125.1,39.4c-5.4,2.7-10.9,4.9-17,5.2c-3.8,0.2-7.4-0.6-10.6-2.6c-3.5-2.2-5.8-5.2-7.3-9.3
	c0.5,0.2,0.8,0.2,1,0.4c7.4,3.7,15.2,5.7,23.5,5.9c3.5,0.1,6.9,0,10.4,0C125,39.1,125,39.2,125.1,39.4z"/>
<g>
	<path class="st0" d="M283.4,407.1c0-0.5,0-1,0-1.4c0-6.2,0-12.5,0-18.7c0-1.2,0.4-1.6,1.5-1.5c0.7,0.1,1.4,0,2.3,0v1.5
		c0,8,0,16.1,0,24.1c0,1.1-0.3,1.4-1.5,1.5c-2.4,0.3-3.9-0.6-5.2-2.7c-3.8-5.9-7.8-11.6-11.7-17.4c-0.4-0.5-0.7-1-1.3-1.9
		c0,0.8-0.1,1.2-0.1,1.6c0,6.3,0,12.6,0,19c0,1.2-0.4,1.5-1.5,1.5c-2.6-0.1-2.3,0.3-2.3-2.3c0-7.8,0-15.5,0-23.3
		c0-1.1,0.3-1.4,1.5-1.5c2.6-0.3,4,0.7,5.4,2.9c3.8,6.1,8,12,12,18c0.2,0.3,0.5,0.6,0.7,0.9C283.1,407.2,283.2,407.2,283.4,407.1
		L283.4,407.1z"/>
	<path class="st0" d="M137.1,384.9c8.2,0,14.1,6,14.1,14.2c0,8.2-6,14.2-14.2,14.2c-8.1,0-14.1-6-14.1-14.3
		C123.1,390.9,129,384.9,137.1,384.9L137.1,384.9z M127.1,399c0,3.4,1.1,6.4,3.8,8.6c3.2,2.6,6.8,3,10.5,1.3c4-1.8,5.8-5.1,5.9-9.4
		c0.1-4.3-1.4-7.8-5.2-9.9C135.1,385.8,127.1,390.8,127.1,399z"/>
	<path class="st0" d="M216.1,388.3c-1,1.1-1.8,2-2.7,2.9c-1.7-1.5-3.5-2.4-5.7-2.7c-7.1-1.1-12.8,4.5-11.9,12
		c0.9,6.6,6.4,10.3,13.3,9c2.4-0.4,3.6-1.9,3.6-4.3c0-1.1,0-2.2,0-3.4c0-0.7-0.3-1-1-1c-1.3,0-2.6,0-3.8,0c-0.8,0-1.2-0.2-1.2-1.1
		c0.1-3-0.3-2.4,2.4-2.4c2.1,0,4.1,0,6.2,0c0.7,0,1.1,0.1,1.1,1c0,3.9,0,7.8,0,11.6c0,0.4-0.3,1-0.6,1.1c-5,2.4-13.9,3.7-19.6-1.4
		c-4.1-3.6-5.6-10.3-3.6-15.9c2-5.4,6.9-8.9,12.7-8.9c2.7,0,5.4,0.1,7.9,1.5C214.2,386.9,215,387.6,216.1,388.3L216.1,388.3z"/>
	<path class="st0" d="M163.3,385.8c0.2-0.1,0.3-0.2,0.3-0.2c4,0.1,8.1-0.2,12.1,0.3c3.7,0.4,5.7,3.2,5.8,7c0.1,3.4-2.1,6.3-5.5,7.2
		c-0.3,0.1-0.5,0.2-1,0.3c2.5,4,4.9,8,7.5,12.1c-1.6,0-3,0.1-4.3,0c-0.4,0-0.7-0.5-1-0.9c-1.9-3.2-3.8-6.4-5.6-9.6
		c-0.5-0.9-1.1-1.2-2.1-1.2c-3,0.1-2.6-0.4-2.6,2.6c0,2.7,0,5.4,0,8c0,0.9-0.2,1.2-1.2,1.2c-3.2-0.1-2.6,0.4-2.6-2.6
		c0-7.6,0-15.2,0-22.8L163.3,385.8L163.3,385.8z M167.2,397.4c2.3,0,4.6,0.1,6.8-0.2c2.5-0.3,3.6-1.7,3.6-4.1c0-2.4-1.1-3.8-3.6-4.1
		c-2.2-0.3-4.5-0.2-6.8-0.2c-0.1,1.9-0.2,3.7-0.2,5.6C167,395.4,167.1,396.4,167.2,397.4L167.2,397.4z"/>
	<path class="st0" d="M253.3,412.6c-1.4,0-2.6,0.1-3.8,0c-0.3,0-0.7-0.5-0.9-0.8c-0.7-1.5-1.3-3.1-1.9-4.7c-0.3-0.8-0.7-1.1-1.6-1.1
		c-3.6,0-7.1,0-10.7,0c-0.8,0-1.2,0.2-1.4,1c-0.6,1.6-1.2,3.2-1.9,4.8c-0.2,0.4-0.8,0.8-1.2,0.9c-1.1,0.1-2.1,0-3.4,0
		c0.2-0.6,0.4-1,0.5-1.4c3.6-8.1,7.2-16.3,10.7-24.5c0.6-1.4,1.5-1.1,2.5-1.2s1.6,0.2,2,1.2c3.4,8.2,6.9,16.3,10.4,24.5
		C252.9,411.6,253.1,411.9,253.3,412.6L253.3,412.6z M244.9,402.6c-1.7-4.1-3.3-8-5-12.2c-1.8,4.3-3.4,8.2-5,12.2H244.9L244.9,402.6
		z"/>
	<g>
		<path class="st0" d="M60.4,385.6c1.2,0,2.3-0.1,3.3,0c0.3,0,0.7,0.6,0.9,1c1.6,5.8,3.2,11.5,4.8,17.3c0.2,0.9,0.5,1.8,0.9,3.1
			c0.2-0.8,0.4-1.2,0.5-1.7c1.8-6.2,3.7-12.3,5.4-18.5c0.3-1,0.7-1.3,1.7-1.3c2.9,0,2.9,0,3.7,2.8c1.7,5.7,3.4,11.4,5,17.1
			c0.1,0.4,0.3,0.8,0.5,1.5c0.2-0.6,0.3-0.9,0.4-1.3c1.7-6.2,3.5-12.5,5.2-18.7c0.3-1.1,0.7-1.6,1.9-1.4c0.7,0.1,1.4,0,2.3,0
			c-0.1,0.6-0.2,1.1-0.3,1.5c-2.4,8.1-4.8,16.3-7.1,24.4c-0.3,0.9-0.7,1.2-1.6,1.1c-3.4-0.1-2.5,0.5-3.5-2.6
			c-1.8-5.9-3.5-11.9-5.3-17.8c-0.1-0.3-0.2-0.7-0.5-1.4c-0.2,0.7-0.4,1-0.5,1.4c-1.9,6.4-3.8,12.7-5.6,19.1
			c-0.3,0.9-0.6,1.3-1.6,1.3c-3.4-0.1-2.5,0.5-3.5-2.6c-2.3-7.7-4.5-15.3-6.7-23C60.7,386.6,60.6,386.2,60.4,385.6L60.4,385.6z"/>
		<path class="st0" d="M54.3,412.6c-1.4,0-2.6,0.1-3.8,0c-0.3,0-0.7-0.5-0.8-0.8c-0.7-1.6-1.3-3.2-1.9-4.8c-0.3-0.7-0.7-1-1.4-1
			c-3.6,0-7.2,0-10.8,0c-0.8,0-1.2,0.2-1.4,1c-0.6,1.6-1.2,3.2-1.9,4.8c-0.2,0.4-0.8,0.8-1.2,0.8c-1,0.1-2.1,0-3.4,0
			c0.2-0.6,0.4-1,0.5-1.4c3.6-8.1,7.2-16.3,10.7-24.5c0.6-1.4,1.5-1.1,2.5-1.2c1-0.1,1.6,0.2,2,1.2c3.5,8.2,7,16.4,10.5,24.6
			C54,411.6,54.1,412,54.3,412.6L54.3,412.6z M41.2,390.8c-0.1,0-0.2,0-0.4,0c-1.6,3.9-3.2,7.8-4.8,11.8h10
			C44.3,398.5,42.8,394.6,41.2,390.8z"/>
		<g>
			<path class="st0" d="M12.6,400.5c2.5,4,4.9,7.9,7.5,12.1c-1.6,0-3,0.1-4.3,0c-0.3,0-0.6-0.5-0.9-0.9c-1.8-3.1-3.7-6.3-5.4-9.5
				c-0.6-1-1.2-1.5-2.4-1.4c-2.5,0.1-2.5,0-2.5,2.5c0,2.7,0,5.4,0,8.1c0,1-0.3,1.2-1.2,1.2c-2.9-0.1-2.4,0.3-2.4-2.4
				c0-7.7,0-15.4,0-23.1c0-1.2,0.3-1.6,1.5-1.5c3.2,0.1,6.5,0,9.7,0.2c4.1,0.3,6.6,2.8,6.9,6.8c0.3,3.6-1.9,6.6-5.6,7.6
				C13.3,400.2,13,400.3,12.6,400.5L12.6,400.5z M4.6,393.1c0,1.2-0.1,2.3,0,3.5c0,0.3,0.4,0.8,0.7,0.8c2.2,0,4.3,0,6.4-0.2
				c2.3-0.3,3.4-1.8,3.4-4.1c0-2.2-1.2-3.7-3.5-4c-2.1-0.2-4.2-0.2-6.3-0.2c-0.2,0-0.7,0.5-0.7,0.8C4.5,390.8,4.6,392,4.6,393.1
				L4.6,393.1z"/>
			<path class="st0" d="M349.7,409.5c1-0.9,2-1.7,3-2.6c1.5,1.8,3.3,2.8,5.5,2.8c1.9,0,3.5-0.5,4.7-2c1.5-1.8,1.2-4.2-0.9-5.3
				c-1.5-0.8-3.2-1.2-4.8-1.9c-1.6-0.7-3.3-1.4-4.6-2.5c-3.1-2.7-2.9-7.9,0.1-10.7c3-2.9,9.8-3.3,13.2-0.8c0.5,0.4,0.9,0.9,1.5,1.4
				c-1,1-2,1.8-3,2.8c-1.9-2.1-4.1-2.7-6.7-2.1c-1.8,0.4-3.1,1.7-3.4,3.3c-0.3,1.7,0.4,3.2,2.3,4.1c1.2,0.6,2.5,1,3.8,1.4
				c0.8,0.3,1.5,0.5,2.3,0.7c6.8,2.4,5.6,10.1,2.1,13c-3.8,3.1-11.2,2.8-14.6-0.8C350.2,410.1,350,409.8,349.7,409.5L349.7,409.5z"
				/>
		</g>
	</g>
	<path class="st0" d="M340.1,389.2c-1,0.7-1.9,1.5-3,2.2c-1.4-1.5-2.9-2.5-4.8-2.9c-5.6-1.1-10.9,2.8-11.6,8.7
		c-0.5,3.8,0.3,7.3,3.2,10.1c3.1,2.9,9.8,3.7,13.2-0.6c0.1-0.2,0.2-0.4,0.4-0.6c1.1,0.9,2.1,1.6,3.1,2.3c-1.8,3.6-8.1,5.7-13.3,4.5
		c-5.9-1.3-10.5-6.9-10.7-12.9c-0.2-7.1,3.5-12.8,9.6-14.5C331.6,383.9,337.9,385.6,340.1,389.2L340.1,389.2z"/>
	<path class="st0" d="M304.6,399.1c0,4,0,8.1,0,12.1c0,1-0.2,1.4-1.3,1.4c-2.9-0.1-2.5,0.3-2.5-2.5c0-7.7,0-15.3,0-23
		c0-1.6,0-1.6,1.6-1.6c2.5,0,2.1-0.1,2.2,2.2C304.6,391.6,304.6,395.4,304.6,399.1L304.6,399.1z"/>
</g>
<path class="st0" d="M167.2,388.8c0,2.9,0,5.7,0,8.6c-0.1-1-0.2-2-0.2-3.1C167,392.5,167.1,390.7,167.2,388.8z"/>
</svg>
