<?xml version="1.0" encoding="UTF-8"?>
<svg id="Layer_1" data-name="Layer 1" xmlns="http://www.w3.org/2000/svg" viewBox="0 0 368.67 109.45">
  <defs>
    <style>
      .cls-1 {
        fill: #7c7c7c;
      }

      .cls-1, .cls-2, .cls-3, .cls-4, .cls-5, .cls-6 {
        stroke-width: 0px;
      }

      .cls-2 {
        fill: #b6b6b6;
      }

      .cls-3 {
        fill: #cdcdcd;
      }

      .cls-4 {
        fill: #6e6e6e;
      }

      .cls-6 {
        fill: #6f6f6f;
      }
    </style>
  </defs>
  <path class="cls-5" d="m0,29.08c.31-1.59.58-3.19.94-4.76C4.32,9.6,16.35.05,31.44,0c6.27-.02,12.15,1.27,17.36,4.83,1.85,1.27,3.42,2.95,5.29,4.58-2.57,1.97-4.87,3.73-7.24,5.55-2.13-2.68-4.78-4.59-7.95-5.79-8.43-3.21-18.36-.46-24.23,6.72-7.37,9.02-7.74,23.39-.75,32.59,3.94,5.19,9.29,7.9,15.77,8.42,4.84.4,9.44-.31,13.41-3.28,1.84-1.38,3.41-3.1,5.19-4.74,2.15,1.62,4.47,3.36,7.08,5.33-1.79,1.66-3.36,3.43-5.22,4.79-15.8,11.59-40.38,6.18-48.19-15.03-.79-2.15-1.15-4.47-1.71-6.71-.06-.26-.17-.5-.25-.75C0,34.04,0,31.56,0,29.08Z"/>
  <path class="cls-5" d="m242.56,48.54c.44-1,.76-1.72,1.06-2.45,6.02-14.47,12.05-28.94,18.04-43.43.37-.89.8-1.17,1.75-1.15,3.32.06,6.63.02,9.95.03.39,0,.78.03,1.24.05v61.72h-8.35V13.03c-.07-.01-.14-.03-.21-.04-.17.38-.36.75-.52,1.13-6.59,16.05-13.19,32.1-19.76,48.16-.33.81-.7,1.18-1.63,1.12-1.47-.09-2.95-.02-4.46-.02-6.91-16.82-13.8-33.6-20.69-50.37-.08.01-.16.02-.24.03v50.27h-8.44V1.54c.78,0,1.52,0,2.26,0,3.04,0,6.08.03,9.11-.02.85-.02,1.25.26,1.57,1.04,6.21,14.87,12.46,29.73,18.69,44.58.15.36.32.71.62,1.4Z"/>
  <path class="cls-5" d="m83.15,64.38c-12.44,0-21.98-9.56-21.94-22.05.04-11.81,10.02-21.66,22.48-21.45,11.82.2,21.6,9.92,21.57,21.81-.04,12.17-9.74,21.69-22.11,21.69Zm13.67-22.17c-.11-.85-.17-2.14-.45-3.38-1.19-5.24-4.27-8.87-9.58-10.09-5.38-1.24-10.32-.2-14,4.24-2.84,3.42-3.53,7.53-3.02,11.86,1.46,12.52,14.02,14.38,20.71,10.25,4.62-2.86,6.16-7.3,6.34-12.87Z"/>
  <path class="cls-5" d="m155.06,42.61c-.11-11.96,9.97-21.94,22.47-21.72,11.85.2,21.55,9.86,21.54,21.84,0,12.22-9.72,21.68-22.25,21.66-12.17-.02-21.77-9.62-21.76-21.77Zm8.41-.08c.02,8.44,5.1,14.06,12.92,14.5,6.06.34,11.39-3.09,13.35-8.83.88-2.58,1.11-5.22.73-7.92-.69-4.92-2.93-8.83-7.65-10.8-4.85-2.02-9.65-1.71-14,1.41-3.93,2.83-5.2,7-5.36,11.63Z"/>
  <path class="cls-5" d="m322.1,63.34h-7.06v-6.18c-.38.22-.54.26-.61.36-3.72,5.51-9.16,7.13-15.43,6.82-3.87-.19-7.35-1.36-10.13-4.22-4.26-4.37-4.77-14.49,3.17-19.02,3.37-1.92,7.03-2.86,10.84-3.12,3.46-.24,6.94-.22,10.42-.31.31,0,.62-.04.92-.06,1.08-4.77-2.5-9.58-7.55-10.22-4.49-.56-8.56.46-12.14,3.27-.56.44-1.14.86-1.46,1.1-1.78-1.56-3.46-3.04-5.19-4.56,2.71-2.53,5.62-4.11,8.87-5.1,5.06-1.54,10.16-1.72,15.22-.16,6.52,2.01,9.85,6.66,9.87,13.49.02,8.11.02,16.23.05,24.34,0,1.15.14,2.3.22,3.56Zm-7.75-19.82c-2.39,0-4.67-.09-6.93.03-1.9.1-3.81.34-5.69.7-2.08.4-4.01,1.21-5.75,2.5-3.27,2.43-2.98,8.94,1.52,10.4,1.2.39,2.46.73,3.71.84,4.19.36,7.97-.56,10.7-4.03,2.39-3.04,2.67-6.63,2.44-10.44Z"/>
  <path class="cls-5" d="m150.57,27.59c-1.96,1.79-3.93,3.58-5.93,5.41-.56-.51-1.06-.96-1.55-1.41-5.87-5.4-18.55-4.96-21.21,7.42-.97,4.52-.46,8.83,2.27,12.69,4.49,6.34,13.85,7.22,19.48,1.84.37-.36.69-.77.98-1.09,1.92,1.93,3.75,3.76,5.6,5.62-3.36,5.13-13.57,7.76-21.96,5.53-8.97-2.38-14.68-9.63-15.23-19.37-.57-10,4.34-18.25,12.93-21.69,8.43-3.39,19.33-1.19,24.64,5.04Z"/>
  <path class="cls-5" d="m362.66,52.38c2.03,2.03,3.86,3.85,5.71,5.69-3.58,5.24-14.02,7.83-22.29,5.47-8.77-2.5-14.5-9.82-14.89-19.01-.45-10.68,4.4-18.81,13.17-22.11,8.47-3.19,19.39-.89,24.31,5.19-1.95,1.79-3.91,3.58-5.9,5.39-.7-.62-1.3-1.2-1.95-1.72-5.29-4.23-13.15-3.84-17.43.84-4.64,5.09-5.12,14.15-1.05,19.7,4.59,6.26,13.9,7.04,19.52,1.62.34-.33.57-.76.79-1.06Z"/>
  <path class="cls-4" d="m60.4,81.72c1.22,0,2.26-.09,3.26.05.33.05.74.64.86,1.05,1.63,5.77,3.22,11.54,4.81,17.32.25.9.51,1.8.88,3.06.25-.8.4-1.24.54-1.69,1.82-6.17,3.65-12.33,5.43-18.51.28-.97.7-1.34,1.73-1.33,2.9.04,2.89,0,3.72,2.79,1.68,5.71,3.36,11.42,5.04,17.13.12.42.27.83.5,1.51.19-.59.32-.93.42-1.28,1.73-6.24,3.48-12.47,5.15-18.72.29-1.09.74-1.56,1.88-1.43.7.08,1.42.02,2.34.02-.14.62-.22,1.08-.34,1.51-2.37,8.13-4.75,16.26-7.08,24.4-.26.92-.7,1.18-1.59,1.15-3.38-.12-2.51.54-3.47-2.62-1.8-5.92-3.53-11.87-5.28-17.81-.1-.34-.23-.67-.46-1.37-.24.68-.4,1.05-.51,1.43-1.87,6.36-3.76,12.72-5.6,19.09-.26.9-.61,1.32-1.63,1.28-3.36-.14-2.53.52-3.47-2.63-2.28-7.66-4.5-15.33-6.74-23-.11-.38-.2-.76-.36-1.42Z"/>
  <path class="cls-4" d="m283.35,103.29c0-.47,0-.95,0-1.42,0-6.24.03-12.47-.02-18.71,0-1.17.35-1.59,1.5-1.47.7.07,1.41.01,2.26.01v1.47c0,8.03-.02,16.07.02,24.1,0,1.13-.3,1.4-1.45,1.52-2.44.27-3.86-.62-5.19-2.71-3.75-5.9-7.78-11.62-11.7-17.41-.36-.53-.72-1.04-1.31-1.89-.04.75-.08,1.16-.08,1.56,0,6.32-.03,12.63.02,18.95,0,1.17-.35,1.51-1.49,1.47-2.64-.1-2.29.28-2.29-2.32-.02-7.75.02-15.51-.03-23.26,0-1.13.33-1.39,1.46-1.54,2.56-.33,4.01.69,5.37,2.85,3.84,6.08,7.95,11.99,11.95,17.97.21.32.45.62.68.93.09-.03.19-.07.28-.1Z"/>
  <path class="cls-4" d="m137.15,81.09c8.19,0,14.15,5.97,14.15,14.17,0,8.19-5.99,14.17-14.17,14.17-8.14,0-14.06-6.01-14.05-14.26,0-8.14,5.95-14.08,14.08-14.08Zm-10.09,14.07c-.01,3.41,1.06,6.4,3.77,8.57,3.19,2.56,6.82,2.95,10.49,1.33,3.97-1.76,5.81-5.12,5.95-9.37.14-4.27-1.4-7.79-5.25-9.93-6.93-3.85-14.92,1.21-14.96,9.4Z"/>
  <path class="cls-4" d="m216.06,84.48c-1.01,1.08-1.82,1.95-2.7,2.9-1.68-1.46-3.51-2.37-5.68-2.72-7.11-1.13-12.82,4.54-11.85,12.03.85,6.61,6.4,10.29,13.31,9.04q3.6-.65,3.6-4.29c0-1.12-.03-2.24,0-3.36.02-.73-.28-1-.99-.98-1.28.02-2.56-.02-3.83,0-.77.02-1.18-.19-1.16-1.07.06-2.98-.27-2.38,2.39-2.43,2.08-.04,4.15.01,6.23-.02.72-.01,1.11.15,1.1.98-.03,3.87,0,7.75-.04,11.62,0,.39-.31.96-.64,1.12-4.97,2.44-13.86,3.71-19.55-1.4-4.05-3.64-5.65-10.34-3.6-15.9,2-5.44,6.92-8.88,12.68-8.94,2.74-.03,5.45.11,7.91,1.49.92.52,1.76,1.19,2.82,1.91Z"/>
  <path class="cls-1" d="m163.32,81.97c.2-.12.27-.2.33-.2,4.02.07,8.08-.16,12.06.3,3.7.43,5.71,3.25,5.82,6.97.1,3.39-2.1,6.26-5.52,7.21-.26.07-.52.17-.98.32,2.49,4.02,4.93,7.95,7.53,12.15-1.62,0-2.96.07-4.28-.04-.35-.03-.73-.55-.96-.94-1.88-3.2-3.76-6.41-5.56-9.65-.5-.89-1.07-1.22-2.08-1.19-2.97.11-2.56-.39-2.59,2.64-.02,2.68-.03,5.35,0,8.03.01.86-.25,1.21-1.17,1.19-3.17-.08-2.6.35-2.61-2.58-.03-7.59-.01-15.18-.01-22.77v-1.46Zm3.85,11.62c2.26-.05,4.55.09,6.79-.18,2.51-.3,3.58-1.73,3.58-4.11,0-2.41-1.06-3.8-3.58-4.1-2.24-.27-4.52-.16-6.78-.22-.08,1.85-.2,3.71-.22,5.56-.01,1.02.14,2.04.22,3.06Z"/>
  <path class="cls-4" d="m12.62,96.63c2.48,3.99,4.91,7.92,7.5,12.09-1.6,0-2.97.06-4.33-.04-.31-.02-.65-.53-.85-.89-1.84-3.14-3.69-6.27-5.44-9.46-.57-1.03-1.19-1.49-2.42-1.44-2.48.11-2.48.03-2.48,2.5,0,2.72-.04,5.44.02,8.15.02.96-.32,1.24-1.25,1.22-2.87-.08-2.43.3-2.43-2.4-.02-7.71.02-15.43-.04-23.14,0-1.23.35-1.58,1.55-1.54,3.23.11,6.48-.02,9.7.18,4.12.26,6.58,2.78,6.92,6.76.31,3.6-1.85,6.57-5.55,7.65-.26.08-.51.2-.9.35Zm-8.02-7.34c0,1.16-.05,2.32.03,3.47.02.29.45.8.69.8,2.15,0,4.32.05,6.45-.23,2.3-.3,3.38-1.81,3.36-4.09-.02-2.23-1.19-3.73-3.48-4-2.09-.25-4.22-.22-6.33-.23-.24,0-.67.51-.69.8-.08,1.15-.03,2.31-.03,3.47Z"/>
  <path class="cls-4" d="m253.28,108.74c-1.38,0-2.58.06-3.76-.04-.31-.02-.7-.47-.85-.81-.68-1.53-1.32-3.09-1.89-4.66-.29-.79-.72-1.11-1.58-1.1-3.56.04-7.11.03-10.67,0-.75,0-1.16.24-1.42.96-.59,1.61-1.21,3.22-1.93,4.77-.18.39-.75.8-1.19.85-1.05.12-2.13.04-3.4.04.23-.59.36-.99.53-1.38,3.59-8.15,7.22-16.28,10.73-24.47.58-1.36,1.49-1.13,2.5-1.21,1.01-.08,1.56.23,1.98,1.23,3.44,8.17,6.95,16.31,10.44,24.46.15.36.28.73.51,1.35Zm-8.38-9.98c-1.67-4.1-3.26-8.01-4.98-12.25-1.75,4.26-3.36,8.17-5.03,12.25h10.02Z"/>
  <path class="cls-4" d="m54.35,108.74c-1.38,0-2.58.06-3.76-.04-.31-.03-.7-.48-.85-.82-.69-1.57-1.34-3.16-1.94-4.77-.26-.7-.65-.98-1.41-.98-3.6.03-7.19.03-10.79,0-.75,0-1.16.25-1.42.97-.59,1.61-1.21,3.22-1.93,4.77-.18.39-.76.79-1.2.84-1.05.12-2.13.04-3.38.04.22-.58.36-.99.53-1.38,3.59-8.15,7.22-16.28,10.73-24.47.58-1.35,1.49-1.13,2.5-1.21,1-.08,1.57.23,1.99,1.23,3.46,8.2,6.98,16.38,10.48,24.57.14.32.24.66.46,1.24Zm-13.16-21.79c-.12,0-.24,0-.36,0-1.6,3.89-3.2,7.77-4.85,11.76h9.99c-1.64-4.05-3.21-7.9-4.78-11.76Z"/>
  <path class="cls-4" d="m349.73,105.65c1-.86,1.96-1.67,2.99-2.56,1.47,1.83,3.28,2.79,5.53,2.83,1.85.03,3.48-.51,4.68-1.98,1.5-1.82,1.17-4.19-.89-5.31-1.49-.81-3.2-1.21-4.75-1.93-1.58-.73-3.3-1.38-4.57-2.5-3.08-2.71-2.93-7.86.08-10.72,3.04-2.89,9.84-3.31,13.21-.8.5.38.94.85,1.53,1.39-1.03.96-1.97,1.84-2.97,2.77-1.86-2.13-4.11-2.7-6.68-2.13-1.82.4-3.1,1.67-3.36,3.32-.28,1.74.44,3.17,2.26,4.08,1.21.6,2.52.99,3.8,1.44.75.27,1.53.47,2.28.73,6.79,2.4,5.64,10.12,2.1,13-3.81,3.11-11.21,2.76-14.57-.82-.21-.23-.39-.49-.66-.84Z"/>
  <path class="cls-4" d="m340.06,85.36c-.96.73-1.93,1.47-2.95,2.24-1.36-1.49-2.91-2.5-4.82-2.87-5.62-1.09-10.85,2.81-11.6,8.73-.49,3.84.27,7.31,3.21,10.09,3.08,2.91,9.76,3.74,13.23-.63.12-.16.21-.35.38-.63,1.14.86,2.11,1.58,3.07,2.3-1.78,3.57-8.11,5.69-13.3,4.55-5.88-1.3-10.49-6.86-10.69-12.92-.24-7.09,3.5-12.76,9.59-14.54,5.39-1.58,11.75.07,13.88,3.7Z"/>
  <path class="cls-6" d="m304.57,95.28c0,4.03-.03,8.07.02,12.1.01,1.01-.22,1.43-1.32,1.39-2.89-.11-2.45.34-2.46-2.5-.02-7.67,0-15.33,0-23,0-1.56,0-1.57,1.6-1.56,2.52,0,2.15-.14,2.16,2.2.02,3.79,0,7.59,0,11.38Z"/>
  <path class="cls-3" d="m167.18,84.98c2.26.06,4.55-.05,6.78.22,2.53.31,3.58,1.7,3.58,4.1,0,2.38-1.07,3.81-3.58,4.11-2.24.27-4.52.14-6.79.18,0-2.87,0-5.74,0-8.62Z"/>
  <path class="cls-2" d="m167.18,84.98c0,2.87,0,5.74,0,8.62-.08-1.02-.23-2.04-.22-3.06.02-1.85.14-3.71.22-5.56Z"/>
</svg>