<?xml version="1.0" encoding="UTF-8"?>
<svg id="Layer_1" data-name="Layer 1" xmlns="http://www.w3.org/2000/svg" viewBox="0 0 234.33 290.32">
  <defs>
    <style>
      .cls-1, .cls-2 {
        stroke-width: 0px;
        fill: #2D2D2D;
      }
    </style>
  </defs>
  <path class="cls-2" d="m110.23,0c1.09,2.85,2.93,5.2,4.93,7.44,3.39,3.8,7.61,6.56,11.88,9.23,4.95,3.1,9.83,6.31,13.76,10.7,2.08,2.32,3.91,4.85,6,7.15,3.63,3.98,7.37,7.86,11.06,11.78.27.28.54.57.68,1.06-1.73-.75-3.43-1.54-5.18-2.24-8.16-3.25-16.33-6.47-24.5-9.71-5.8-2.29-9.99-6.38-12.91-11.79-3.2-5.92-4.62-12.39-5.5-19-.21-1.54-.32-3.09-.47-4.64.08,0,.16,0,.24,0Z"/>
  <path class="cls-1" d="m51.86,281.79c.91.25,1.83.51,2.74.76,10.78,3.02,21.79,4.63,32.96,5.12,21.22.95,41.68-2.27,61.04-11.26,24.16-11.23,42.22-28.9,54.59-52.42,7.3-13.88,11.84-28.66,13.43-44.24,3.61-35.39-5.63-67.04-28.58-94.33-15.1-17.95-33.81-30.96-56.02-38.75-13.5-4.74-27.44-6.75-41.73-6.08-15.65.73-30.49,4.72-44.64,11.4C28.13,60.26,13.2,71.84.89,86.81c-.22.27-.47.53-.89.69.2-.35.4-.7.61-1.04,6.06-9.64,14-17.5,23.02-24.34,17.34-13.15,36.86-20.97,58.41-23.67,25.33-3.18,49.56.8,72.53,11.92,26.1,12.64,45.7,32.02,58.86,57.85,7.04,13.81,11.41,28.47,12.89,43.91,3.27,33.96-5.52,64.56-26.65,91.29-19.31,24.43-44.66,39.46-75.17,45.51-5.83,1.15-11.92,1.12-17.9,1.31-8.27.26-16.55,0-24.78-.97-10-1.17-19.73-3.51-29.23-6.84-.29-.1-.57-.25-.85-.37.04-.08.07-.17.11-.25Z"/>
  <path class="cls-2" d="m150.35,62.32c-31.64-3.12-59.21,6.26-83.41,26.91.06-.48.04-.74.13-.96,3.25-8.34,7.09-16.36,12.78-23.36,5.93-7.3,13.21-12.49,22.66-14.17,6.74-1.2,13.37-.43,19.95,1.13,7.73,1.83,15.06,4.82,22.32,7.98,1.86.81,3.72,1.64,5.57,2.46Z"/>
  <path class="cls-1" d="m180.7,82.9c-26.4-6.06-50.84-2.87-72.9,13.7,0-.15-.03-.29,0-.4,3.1-8.78,7.49-16.77,14.37-23.2,8.21-7.69,17.82-9.68,28.56-6.89,8.49,2.2,15.97,6.43,23.03,11.5,2.11,1.51,4.09,3.19,6.14,4.79.25.19.53.34.79.5Z"/>
  <path class="cls-1" d="m87.21,50.26c-.68,1.33-1.23,2.6-1.94,3.78-2.77,4.54-6.65,8.02-11.12,10.72-6.5,3.91-13.14,7.59-19.8,11.22-8.64,4.71-17.19,9.54-24.75,15.92-1.66,1.4-3.26,2.89-5.1,4.22.86-1.96,1.65-3.95,2.59-5.87,6.31-12.96,14.99-23.94,27.06-32.02,6.47-4.33,13.51-7.33,21.28-8.16,3.47-.37,7.01-.09,10.51-.09.34,0,.69.15,1.27.29Z"/>
  <path class="cls-2" d="m200.01,107.56c-21.14-10.46-42.63-13.73-65.26-5.12,1.25-1.62,2.45-3.3,3.77-4.86,3.43-4.04,7.34-7.57,11.91-10.29,4.24-2.52,8.83-4,13.77-3.95,4.77.04,9.2,1.56,13.34,3.87,7.49,4.18,13.69,9.9,19.21,16.42,1.1,1.3,2.17,2.62,3.25,3.94Z"/>
  <path class="cls-1" d="m234.33,71.99c-.83,2.57-1.84,5.13-2.47,7.79-1,4.23-.53,8.5.09,12.75.72,4.98,1.62,9.95,1.07,15.02-.22,1.98-.46,3.99-1.04,5.88-2.4,7.81-3.83,15.83-5.18,23.86-.03.15-.06.31-.15.82-.2-.57-.31-.82-.38-1.09-2.32-8.8-4.63-17.61-6.95-26.41-.62-2.35-1.48-4.66-1.85-7.05-.81-5.24.47-10.19,2.91-14.8,3.4-6.44,8.25-11.74,13.63-16.57.11-.1.26-.17.3-.2Z"/>
  <path class="cls-2" d="m213.75,99.96c-1.69-2.65-3.32-5.34-5.09-7.94-3.92-5.78-7.81-11.58-11.88-17.26-3.06-4.27-4.7-8.87-4.81-14.14-.14-6.43,1.84-12.28,4.43-17.98,1-2.21,2.36-4.25,3.56-6.36.11-.2.26-.37.39-.56.08.05.17.11.25.16-.06.54-.12,1.07-.19,1.61-.76,5.62.54,10.86,2.94,15.9,1.89,3.96,3.93,7.86,5.65,11.9,1.5,3.51,1.99,7.26,2.25,11.09.39,5.64,1.11,11.27,1.74,16.89.25,2.21.65,4.4.99,6.61l-.24.09Z"/>
  <path class="cls-1" d="m159.88,12.82c.26,1.25.44,2.13.64,3.01,1.31,5.73,4.5,10.43,8.14,14.9,2.6,3.19,5.23,6.36,7.69,9.65,2.31,3.08,3.79,6.62,5.28,10.17,2.58,6.18,5.49,12.23,8.26,18.34.25.54.54,1.06.98,1.94-.52-.35-.77-.48-.98-.66-7.79-6.37-15.54-12.79-23.39-19.08-5.49-4.4-8.49-10.11-9.22-17-.74-6.97.43-13.77,2.25-20.48.04-.15.12-.29.34-.78Z"/>
  <path class="cls-1" d="m67.87,3.77c.67.77,1.26,1.46,1.87,2.12,3.4,3.71,7.75,5.81,12.45,7.31,3.65,1.17,7.31,2.29,10.92,3.58,3.37,1.21,6.37,3.1,9.1,5.44,4.9,4.2,10.37,7.59,15.84,10.97.33.2.64.42,1.19.79-4.34-.42-8.37-.88-12.42-1.19-4.89-.37-9.8-.87-14.7-.87-7.47,0-13.09-3.15-17.1-9.25-3.69-5.61-5.75-11.9-7.22-18.41-.02-.11.02-.23.06-.5Z"/>
  <path class="cls-1" d="m163.5,111.21c3.42-1.63,6.98-2.64,10.66-3.22,6.88-1.08,13.55-.53,19.77,2.9,5.7,3.15,9.51,8.07,12.49,13.7,3.54,6.7,5.63,13.89,6.91,21.33.03.15,0,.31,0,.67-12.3-18.02-28.17-30.76-49.83-35.38Z"/>
  <path class="cls-2" d="m80.22,33.61c-.81.25-1.55.5-2.3.7-6.3,1.73-12.67,2.58-19.18,1.47-8.84-1.51-14.85-6.64-18.47-14.69-.87-1.94-1.41-4.03-2.11-6.05l.34-.27c.41.16.85.27,1.23.48,4.81,2.68,9.65,5.32,14.41,8.09,7.48,4.36,15.38,7.59,23.84,9.46.66.15,1.31.34,1.96.52.06.02.1.11.28.29Z"/>
  <path class="cls-1" d="m57.81,39.43c-5.36,2.72-10.89,4.89-17,5.15-3.79.16-7.39-.58-10.64-2.62-3.47-2.17-5.85-5.22-7.31-9.31.47.17.75.23,1,.36,7.4,3.69,15.23,5.66,23.5,5.86,3.46.08,6.93.01,10.39.01.02.18.04.37.06.55Z"/>
</svg>
